<svg width="824" height="286" viewBox="0 0 824 286" fill="none" xmlns="http://www.w3.org/2000/svg">
<path fill-rule="evenodd" clip-rule="evenodd" d="M72.2353 30.415C72.2353 37.7639 66.2778 43.7215 58.9288 43.7215C51.5798 43.7215 45.6223 37.7639 45.6223 30.415C45.6223 23.066 51.5798 17.1084 58.9288 17.1084C66.2778 17.1084 72.2353 23.066 72.2353 30.415ZM77.9381 30.415C77.9381 40.9135 69.4274 49.4243 58.9288 49.4243C48.4303 49.4243 39.9195 40.9135 39.9195 30.415C39.9195 19.9164 48.4303 11.4056 58.9288 11.4056C69.4274 11.4056 77.9381 19.9164 77.9381 30.415Z" fill="#476A72"/>
<path d="M65.5822 30.415C65.5822 34.0895 62.6034 37.0682 58.929 37.0682C55.2545 37.0682 52.2757 34.0895 52.2757 30.415C52.2757 26.7405 55.2545 23.7617 58.929 23.7617C62.6034 23.7617 65.5822 26.7405 65.5822 30.415Z" fill="#CFDCDF"/>
<path d="M224.539 30.5576C224.539 37.4612 218.943 43.0576 212.039 43.0576C205.136 43.0576 199.539 37.4612 199.539 30.5576C199.539 23.6541 205.136 18.0576 212.039 18.0576C218.943 18.0576 224.539 23.6541 224.539 30.5576Z" fill="#CFDCDF"/>
<path d="M421.057 30.415C421.057 34.0895 418.078 37.0682 414.403 37.0682C410.729 37.0682 407.75 34.0895 407.75 30.415C407.75 26.7405 410.729 23.7617 414.403 23.7617C418.078 23.7617 421.057 26.7405 421.057 30.415Z" fill="#CFDCDF"/>
<path d="M349.771 153.025C349.771 156.699 346.792 159.678 343.118 159.678C339.443 159.678 336.465 156.699 336.465 153.025C336.465 149.35 339.443 146.372 343.118 146.372C346.792 146.372 349.771 149.35 349.771 153.025Z" fill="#E1E7FB"/>
<path d="M492.341 153.025C492.341 156.699 489.363 159.678 485.688 159.678C482.014 159.678 479.035 156.699 479.035 153.025C479.035 149.35 482.014 146.372 485.688 146.372C489.363 146.372 492.341 149.35 492.341 153.025Z" fill="#E1E7FB"/>
<path d="M711.539 152.558C711.539 159.461 705.943 165.058 699.039 165.058C692.136 165.058 686.539 159.461 686.539 152.558C686.539 145.654 692.136 140.058 699.039 140.058C705.943 140.058 711.539 145.654 711.539 152.558Z" fill="#E1E7FB"/>
<path d="M563.626 30.415C563.626 34.0895 560.647 37.0682 556.973 37.0682C553.298 37.0682 550.32 34.0895 550.32 30.415C550.32 26.7405 553.298 23.7617 556.973 23.7617C560.647 23.7617 563.626 26.7405 563.626 30.415Z" fill="#CFDCDF"/>
<path d="M706.196 30.415C706.196 34.0895 703.217 37.0682 699.543 37.0682C695.868 37.0682 692.89 34.0895 692.89 30.415C692.89 26.7405 695.868 23.7617 699.543 23.7617C703.217 23.7617 706.196 26.7405 706.196 30.415Z" fill="#CFDCDF"/>
<path fill-rule="evenodd" clip-rule="evenodd" d="M343.118 166.331C350.467 166.331 356.425 160.374 356.425 153.025C356.425 145.676 350.467 139.718 343.118 139.718C335.769 139.718 329.812 145.676 329.812 153.025C329.812 160.374 335.769 166.331 343.118 166.331ZM343.118 172.034C353.617 172.034 362.127 163.523 362.127 153.025C362.127 142.526 353.617 134.016 343.118 134.016C332.62 134.016 324.109 142.526 324.109 153.025C324.109 163.523 332.62 172.034 343.118 172.034Z" fill="#7D96E9"/>
<path fill-rule="evenodd" clip-rule="evenodd" d="M356.425 153.025C356.425 160.374 350.467 166.331 343.118 166.331C335.769 166.331 329.812 160.374 329.812 153.025C329.812 145.676 335.769 139.718 343.118 139.718C350.467 139.718 356.425 145.676 356.425 153.025ZM362.127 153.025C362.127 163.523 353.617 172.034 343.118 172.034C332.62 172.034 324.109 163.523 324.109 153.025C324.109 142.526 332.62 134.016 343.118 134.016C353.617 134.016 362.127 142.526 362.127 153.025Z" fill="#7D96E9"/>
<path fill-rule="evenodd" clip-rule="evenodd" d="M485.688 166.331C493.037 166.331 498.995 160.374 498.995 153.025C498.995 145.676 493.037 139.718 485.688 139.718C478.339 139.718 472.382 145.676 472.382 153.025C472.382 160.374 478.339 166.331 485.688 166.331ZM485.688 172.034C496.187 172.034 504.697 163.523 504.697 153.025C504.697 142.526 496.187 134.016 485.688 134.016C475.189 134.016 466.679 142.526 466.679 153.025C466.679 163.523 475.189 172.034 485.688 172.034Z" fill="#7D96E9"/>
<path fill-rule="evenodd" clip-rule="evenodd" d="M498.995 153.025C498.995 160.374 493.037 166.331 485.688 166.331C478.339 166.331 472.382 160.374 472.382 153.025C472.382 145.676 478.339 139.718 485.688 139.718C493.037 139.718 498.995 145.676 498.995 153.025ZM504.697 153.025C504.697 163.523 496.187 172.034 485.688 172.034C475.189 172.034 466.679 163.523 466.679 153.025C466.679 142.526 475.189 134.016 485.688 134.016C496.187 134.016 504.697 142.526 504.697 153.025Z" fill="#7D96E9"/>
<path fill-rule="evenodd" clip-rule="evenodd" d="M427.71 30.415C427.71 37.7639 421.752 43.7215 414.403 43.7215C407.054 43.7215 401.097 37.7639 401.097 30.415C401.097 23.066 407.054 17.1084 414.403 17.1084C421.752 17.1084 427.71 23.066 427.71 30.415ZM433.412 30.415C433.412 40.9135 424.902 49.4243 414.403 49.4243C403.904 49.4243 395.394 40.9135 395.394 30.415C395.394 19.9164 403.904 11.4056 414.403 11.4056C424.902 11.4056 433.412 19.9164 433.412 30.415Z" fill="#476A72"/>
<path fill-rule="evenodd" clip-rule="evenodd" d="M570.279 30.415C570.279 37.7639 564.322 43.7215 556.973 43.7215C549.624 43.7215 543.666 37.7639 543.666 30.415C543.666 23.066 549.624 17.1084 556.973 17.1084C564.322 17.1084 570.279 23.066 570.279 30.415ZM575.982 30.415C575.982 40.9135 567.471 49.4243 556.973 49.4243C546.474 49.4243 537.964 40.9135 537.964 30.415C537.964 19.9164 546.474 11.4056 556.973 11.4056C567.471 11.4056 575.982 19.9164 575.982 30.415Z" fill="#476A72"/>
<path fill-rule="evenodd" clip-rule="evenodd" d="M712.849 30.415C712.849 37.7639 706.892 43.7215 699.543 43.7215C692.194 43.7215 686.236 37.7639 686.236 30.415C686.236 23.066 692.194 17.1084 699.543 17.1084C706.892 17.1084 712.849 23.066 712.849 30.415ZM718.552 30.415C718.552 40.9135 710.041 49.4243 699.543 49.4243C689.044 49.4243 680.534 40.9135 680.534 30.415C680.534 19.9164 689.044 11.4056 699.543 11.4056C710.041 11.4056 718.552 19.9164 718.552 30.415Z" fill="#476A72"/>
<path fill-rule="evenodd" clip-rule="evenodd" d="M234.765 30.4149C234.765 43.0132 224.552 53.2261 211.954 53.2261C199.356 53.2261 189.143 43.0132 189.143 30.4149C189.143 17.8166 199.356 7.60373 211.954 7.60373C224.552 7.60373 234.765 17.8166 234.765 30.4149ZM242.369 30.4149C242.369 47.2126 228.752 60.8298 211.954 60.8298C195.156 60.8298 181.539 47.2126 181.539 30.4149C181.539 13.6172 195.156 0 211.954 0C228.752 0 242.369 13.6172 242.369 30.4149Z" fill="#476A72"/>
<path fill-rule="evenodd" clip-rule="evenodd" d="M722.354 153.025C722.354 165.623 712.141 175.836 699.543 175.836C686.944 175.836 676.731 165.623 676.731 153.025C676.731 140.427 686.944 130.214 699.543 130.214C712.141 130.214 722.354 140.427 722.354 153.025ZM729.957 153.025C729.957 169.823 716.34 183.44 699.543 183.44C682.745 183.44 669.128 169.823 669.128 153.025C669.128 136.227 682.745 122.61 699.543 122.61C716.34 122.61 729.957 136.227 729.957 153.025Z" fill="#7D96E9"/>
<path d="M0 29.4645C0 28.9396 0.425538 28.514 0.950466 28.514H39.9196C40.4445 28.514 40.87 28.9396 40.87 29.4645V31.3654C40.87 31.8904 40.4445 32.3159 39.9196 32.3159H0.950466C0.425539 32.3159 0 31.8904 0 31.3654V29.4645Z" fill="#476A72"/>
<path d="M75.087 29.4645C75.087 28.9396 75.5126 28.514 76.0375 28.514H185.341C185.866 28.514 186.292 28.9396 186.292 29.4645V31.3654C186.292 31.8904 185.866 32.3159 185.341 32.3159H76.0375C75.5126 32.3159 75.087 31.8904 75.087 31.3654V29.4645Z" fill="#476A72"/>
<path d="M238.567 29.4645C238.567 28.9396 238.992 28.514 239.517 28.514H397.295C397.82 28.514 398.245 28.9396 398.245 29.4645V31.3654C398.245 31.8904 397.82 32.3159 397.295 32.3159H239.517C238.992 32.3159 238.567 31.8904 238.567 31.3654V29.4645Z" fill="#476A72"/>
<path d="M430.561 29.4645C430.561 28.9396 430.986 28.514 431.511 28.514H538.914C539.439 28.514 539.864 28.9396 539.864 29.4645V31.3654C539.864 31.8904 539.439 32.3159 538.914 32.3159H431.511C430.986 32.3159 430.561 31.8904 430.561 31.3654V29.4645Z" fill="#476A72"/>
<path d="M359.276 152.074C359.276 151.55 359.702 151.124 360.227 151.124H467.629C468.154 151.124 468.58 151.55 468.58 152.074V153.975C468.58 154.5 468.154 154.926 467.629 154.926H360.227C359.702 154.926 359.276 154.5 359.276 153.975V152.074Z" fill="#7D96E9"/>
<path d="M501.846 152.074C501.846 151.55 502.271 151.124 502.796 151.124H671.029C671.554 151.124 671.979 151.55 671.979 152.074V153.975C671.979 154.5 671.554 154.926 671.029 154.926H502.796C502.271 154.926 501.846 154.5 501.846 153.975V152.074Z" fill="#7D96E9"/>
<path d="M572.181 29.4645C572.181 28.9396 572.606 28.514 573.131 28.514H683.385C683.91 28.514 684.336 28.9396 684.336 29.4645V31.3654C684.336 31.8904 683.91 32.3159 683.385 32.3159H573.131C572.606 32.3159 572.181 31.8904 572.181 31.3654V29.4645Z" fill="#476A72"/>
<path fill-rule="evenodd" clip-rule="evenodd" d="M280.863 70.8098C280.863 49.5502 263.628 32.3159 242.369 32.3159V28.514C265.728 28.514 284.665 47.4505 284.665 70.8098V109.301C284.665 132.577 303.666 151.375 326.94 151.124L326.981 154.926C301.591 155.199 280.863 134.692 280.863 109.301V70.8098Z" fill="#7D96E9"/>
<path d="M176.893 282.455C176.196 282.455 175.564 282.341 174.996 282.113C174.428 281.885 173.941 281.575 173.534 281.186C173.128 280.79 172.813 280.328 172.59 279.799C172.373 279.264 172.265 278.693 172.265 278.086V277.752C172.265 277.062 172.373 276.432 172.59 275.864C172.808 275.291 173.111 274.798 173.501 274.386C173.891 273.974 174.353 273.653 174.888 273.425C175.422 273.197 176.004 273.083 176.634 273.083C177.285 273.083 177.864 273.191 178.371 273.408C178.884 273.62 179.315 273.921 179.666 274.311C180.022 274.7 180.293 275.171 180.476 275.722C180.66 276.268 180.752 276.872 180.752 277.535V278.521H174.62C174.665 278.827 174.754 279.108 174.888 279.365C175.027 279.615 175.202 279.832 175.414 280.016C175.626 280.2 175.868 280.342 176.141 280.442C176.414 280.542 176.712 280.593 177.035 280.593C177.263 280.593 177.488 280.57 177.711 280.526C177.94 280.481 178.157 280.417 178.363 280.334C178.569 280.244 178.761 280.136 178.939 280.008C179.117 279.88 179.273 279.729 179.407 279.557L180.568 280.81C180.423 281.016 180.234 281.219 180 281.42C179.772 281.614 179.499 281.79 179.182 281.946C178.87 282.096 178.522 282.219 178.137 282.313C177.753 282.408 177.338 282.455 176.893 282.455ZM176.617 274.962C176.355 274.962 176.116 275.009 175.899 275.104C175.681 275.193 175.489 275.324 175.322 275.497C175.161 275.669 175.024 275.875 174.913 276.115C174.801 276.354 174.718 276.622 174.662 276.917H178.471V276.733C178.46 276.488 178.413 276.257 178.329 276.04C178.246 275.823 178.126 275.636 177.97 275.48C177.814 275.319 177.622 275.193 177.394 275.104C177.171 275.009 176.912 274.962 176.617 274.962Z" fill="#929292"/>
<path d="M186.917 276.073L188.905 273.25H191.403L188.371 277.685L191.512 282.288H189.005L186.925 279.331L184.862 282.288H182.348L185.489 277.685L182.465 273.25H184.962L186.917 276.073Z" fill="#929292"/>
<path d="M201.177 277.853C201.177 278.51 201.099 279.119 200.943 279.682C200.793 280.244 200.567 280.732 200.266 281.144C199.971 281.55 199.604 281.871 199.164 282.105C198.724 282.338 198.22 282.455 197.652 282.455C197.167 282.455 196.741 282.372 196.373 282.205C196.006 282.038 195.686 281.804 195.413 281.503V285.763H193.09V273.25H195.237L195.321 274.135C195.599 273.801 195.928 273.542 196.307 273.358C196.685 273.174 197.128 273.083 197.635 273.083C198.208 273.083 198.715 273.194 199.155 273.417C199.595 273.634 199.966 273.946 200.266 274.352C200.567 274.753 200.793 275.238 200.943 275.806C201.099 276.368 201.177 276.992 201.177 277.677V277.853ZM198.854 277.677C198.854 277.298 198.818 276.945 198.746 276.616C198.679 276.282 198.57 275.995 198.42 275.756C198.275 275.511 198.086 275.319 197.852 275.179C197.624 275.04 197.345 274.97 197.017 274.97C196.61 274.97 196.276 275.051 196.014 275.213C195.758 275.369 195.558 275.591 195.413 275.881V279.657C195.558 279.941 195.758 280.169 196.014 280.342C196.276 280.509 196.616 280.593 197.033 280.593C197.362 280.593 197.64 280.52 197.869 280.375C198.103 280.231 198.292 280.033 198.437 279.782C198.582 279.532 198.687 279.242 198.754 278.913C198.821 278.579 198.854 278.226 198.854 277.853V277.677Z" fill="#929292"/>
<path d="M207.718 282.455C207.022 282.455 206.39 282.341 205.821 282.113C205.253 281.885 204.766 281.575 204.36 281.186C203.953 280.79 203.638 280.328 203.416 279.799C203.198 279.264 203.09 278.693 203.09 278.086V277.752C203.09 277.062 203.198 276.432 203.416 275.864C203.633 275.291 203.936 274.798 204.326 274.386C204.716 273.974 205.178 273.653 205.713 273.425C206.248 273.197 206.829 273.083 207.459 273.083C208.11 273.083 208.69 273.191 209.196 273.408C209.709 273.62 210.14 273.921 210.491 274.311C210.848 274.7 211.118 275.171 211.302 275.722C211.485 276.268 211.577 276.872 211.577 277.535V278.521H205.446C205.49 278.827 205.579 279.108 205.713 279.365C205.852 279.615 206.028 279.832 206.239 280.016C206.451 280.2 206.693 280.342 206.966 280.442C207.239 280.542 207.537 280.593 207.86 280.593C208.088 280.593 208.314 280.57 208.536 280.526C208.765 280.481 208.982 280.417 209.188 280.334C209.394 280.244 209.586 280.136 209.764 280.008C209.943 279.88 210.099 279.729 210.232 279.557L211.393 280.81C211.249 281.016 211.059 281.219 210.825 281.42C210.597 281.614 210.324 281.79 210.007 281.946C209.695 282.096 209.347 282.219 208.962 282.313C208.578 282.408 208.163 282.455 207.718 282.455ZM207.442 274.962C207.18 274.962 206.941 275.009 206.724 275.104C206.506 275.193 206.314 275.324 206.147 275.497C205.986 275.669 205.849 275.875 205.738 276.115C205.627 276.354 205.543 276.622 205.487 276.917H209.297V276.733C209.285 276.488 209.238 276.257 209.155 276.04C209.071 275.823 208.951 275.636 208.795 275.48C208.639 275.319 208.447 275.193 208.219 275.104C207.996 275.009 207.737 274.962 207.442 274.962Z" fill="#929292"/>
<path d="M217.609 280.601C217.837 280.601 218.054 280.567 218.26 280.501C218.466 280.434 218.647 280.339 218.803 280.217C218.959 280.094 219.079 279.946 219.162 279.774C219.251 279.601 219.29 279.409 219.279 279.197H221.468C221.479 279.665 221.382 280.1 221.176 280.501C220.975 280.902 220.699 281.247 220.349 281.536C219.998 281.826 219.588 282.054 219.121 282.221C218.658 282.383 218.168 282.464 217.65 282.464C216.949 282.464 216.333 282.347 215.804 282.113C215.275 281.873 214.832 281.548 214.476 281.136C214.125 280.723 213.858 280.242 213.674 279.69C213.496 279.133 213.407 278.538 213.407 277.903V277.652C213.407 277.017 213.496 276.424 213.674 275.873C213.852 275.316 214.119 274.831 214.476 274.419C214.832 274.007 215.272 273.681 215.796 273.442C216.325 273.202 216.937 273.083 217.634 273.083C218.191 273.083 218.706 273.166 219.179 273.333C219.652 273.5 220.059 273.737 220.399 274.043C220.744 274.344 221.011 274.712 221.201 275.146C221.39 275.575 221.479 276.056 221.468 276.591H219.279C219.29 276.368 219.257 276.157 219.179 275.956C219.101 275.756 218.987 275.583 218.837 275.438C218.686 275.293 218.505 275.179 218.294 275.096C218.082 275.007 217.851 274.962 217.6 274.962C217.233 274.962 216.929 275.037 216.69 275.188C216.45 275.338 216.258 275.539 216.113 275.789C215.974 276.04 215.874 276.327 215.813 276.65C215.757 276.973 215.729 277.307 215.729 277.652V277.903C215.729 278.253 215.757 278.593 215.813 278.922C215.868 279.245 215.966 279.532 216.105 279.782C216.25 280.027 216.442 280.225 216.681 280.375C216.926 280.526 217.235 280.601 217.609 280.601Z" fill="#929292"/>
<path d="M228.143 271.036V273.25H231.517V274.962H228.143V278.847C228.143 279.175 228.179 279.451 228.251 279.674C228.329 279.891 228.438 280.066 228.577 280.2C228.716 280.328 228.883 280.42 229.078 280.476C229.279 280.531 229.501 280.559 229.746 280.559C229.925 280.559 230.106 280.551 230.289 280.534C230.479 280.517 230.657 280.498 230.824 280.476C230.997 280.448 231.155 280.42 231.3 280.392C231.451 280.364 231.579 280.336 231.685 280.308L231.91 281.904C231.749 281.999 231.559 282.082 231.342 282.155C231.125 282.221 230.894 282.277 230.649 282.322C230.404 282.366 230.147 282.4 229.88 282.422C229.618 282.45 229.359 282.464 229.103 282.464C228.608 282.464 228.156 282.4 227.75 282.272C227.349 282.138 227.004 281.935 226.714 281.662C226.43 281.383 226.21 281.032 226.054 280.609C225.898 280.18 225.82 279.668 225.82 279.072V274.962H223.757V273.25H225.82V271.036H228.143Z" fill="#929292"/>
<path d="M238.543 282.455C237.847 282.455 237.215 282.341 236.647 282.113C236.079 281.885 235.591 281.575 235.185 281.186C234.778 280.79 234.464 280.328 234.241 279.799C234.024 279.264 233.915 278.693 233.915 278.086V277.752C233.915 277.062 234.024 276.432 234.241 275.864C234.458 275.291 234.761 274.798 235.151 274.386C235.541 273.974 236.003 273.653 236.538 273.425C237.073 273.197 237.655 273.083 238.284 273.083C238.936 273.083 239.515 273.191 240.022 273.408C240.534 273.62 240.966 273.921 241.316 274.311C241.673 274.7 241.943 275.171 242.127 275.722C242.31 276.268 242.402 276.872 242.402 277.535V278.521H236.271C236.315 278.827 236.404 279.108 236.538 279.365C236.677 279.615 236.853 279.832 237.064 280.016C237.276 280.2 237.518 280.342 237.791 280.442C238.064 280.542 238.362 280.593 238.685 280.593C238.913 280.593 239.139 280.57 239.362 280.526C239.59 280.481 239.807 280.417 240.013 280.334C240.219 280.244 240.411 280.136 240.59 280.008C240.768 279.88 240.924 279.729 241.057 279.557L242.219 280.81C242.074 281.016 241.884 281.219 241.651 281.42C241.422 281.614 241.149 281.79 240.832 281.946C240.52 282.096 240.172 282.219 239.788 282.313C239.403 282.408 238.988 282.455 238.543 282.455ZM238.267 274.962C238.006 274.962 237.766 275.009 237.549 275.104C237.332 275.193 237.14 275.324 236.972 275.497C236.811 275.669 236.674 275.875 236.563 276.115C236.452 276.354 236.368 276.622 236.312 276.917H240.122V276.733C240.111 276.488 240.063 276.257 239.98 276.04C239.896 275.823 239.776 275.636 239.621 275.48C239.465 275.319 239.272 275.193 239.044 275.104C238.821 275.009 238.562 274.962 238.267 274.962Z" fill="#929292"/>
<path d="M244.19 277.702C244.19 277.017 244.268 276.391 244.424 275.823C244.585 275.255 244.819 274.767 245.126 274.361C245.432 273.954 245.802 273.639 246.237 273.417C246.677 273.194 247.178 273.083 247.74 273.083C248.214 273.083 248.629 273.169 248.985 273.342C249.347 273.509 249.667 273.748 249.946 274.06V269.457H252.276V282.288H250.18L250.063 281.344C249.779 281.695 249.445 281.968 249.06 282.163C248.676 282.358 248.23 282.455 247.724 282.455C247.172 282.455 246.677 282.341 246.237 282.113C245.802 281.879 245.432 281.559 245.126 281.152C244.825 280.746 244.594 280.264 244.432 279.707C244.271 279.145 244.19 278.535 244.19 277.878V277.702ZM246.512 277.878C246.512 278.256 246.543 278.61 246.604 278.938C246.671 279.261 246.777 279.546 246.922 279.791C247.066 280.03 247.253 280.219 247.481 280.359C247.71 280.498 247.988 280.567 248.317 280.567C248.718 280.567 249.049 280.481 249.311 280.308C249.578 280.136 249.79 279.899 249.946 279.598V275.94C249.79 275.633 249.581 275.397 249.319 275.229C249.057 275.057 248.729 274.97 248.333 274.97C248.005 274.97 247.724 275.043 247.49 275.188C247.261 275.327 247.075 275.522 246.93 275.772C246.785 276.017 246.679 276.307 246.613 276.641C246.546 276.97 246.512 277.323 246.512 277.702V277.878Z" fill="#929292"/>
<path d="M676.018 282.288C675.962 282.177 675.915 282.049 675.876 281.904C675.837 281.759 675.803 281.606 675.775 281.445C675.647 281.584 675.5 281.715 675.333 281.837C675.166 281.96 674.979 282.068 674.773 282.163C674.573 282.252 674.35 282.322 674.105 282.372C673.86 282.428 673.595 282.455 673.311 282.455C672.849 282.455 672.423 282.389 672.033 282.255C671.649 282.121 671.317 281.935 671.039 281.695C670.76 281.456 670.543 281.172 670.387 280.843C670.231 280.509 670.153 280.147 670.153 279.757C670.153 278.805 670.507 278.07 671.214 277.552C671.927 277.028 672.988 276.767 674.397 276.767H675.692V276.232C675.692 275.797 675.55 275.455 675.266 275.204C674.982 274.948 674.573 274.82 674.038 274.82C673.565 274.82 673.219 274.923 673.002 275.129C672.785 275.33 672.676 275.6 672.676 275.94H670.354C670.354 275.555 670.437 275.19 670.605 274.845C670.777 274.5 671.025 274.196 671.348 273.935C671.677 273.673 672.075 273.467 672.543 273.316C673.016 273.161 673.556 273.083 674.163 273.083C674.709 273.083 675.216 273.149 675.684 273.283C676.157 273.417 676.566 273.614 676.912 273.876C677.257 274.138 677.527 274.469 677.722 274.87C677.917 275.266 678.014 275.725 678.014 276.249V280.125C678.014 280.609 678.045 281.01 678.106 281.328C678.167 281.645 678.257 281.918 678.373 282.146V282.288H676.018ZM673.804 280.659C674.038 280.659 674.255 280.632 674.456 280.576C674.656 280.52 674.837 280.448 674.999 280.359C675.16 280.27 675.299 280.169 675.416 280.058C675.533 279.941 675.625 279.824 675.692 279.707V278.153H674.506C674.144 278.153 673.835 278.189 673.578 278.262C673.322 278.329 673.113 278.426 672.952 278.554C672.79 278.677 672.671 278.827 672.593 279.005C672.515 279.178 672.476 279.367 672.476 279.573C672.476 279.885 672.584 280.144 672.802 280.35C673.024 280.556 673.358 280.659 673.804 280.659Z" fill="#929292"/>
<path d="M684.647 280.601C684.875 280.601 685.093 280.567 685.299 280.501C685.505 280.434 685.686 280.339 685.842 280.217C685.998 280.094 686.117 279.946 686.201 279.774C686.29 279.601 686.329 279.409 686.318 279.197H688.507C688.518 279.665 688.42 280.1 688.214 280.501C688.014 280.902 687.738 281.247 687.387 281.536C687.036 281.826 686.627 282.054 686.159 282.221C685.697 282.383 685.207 282.464 684.689 282.464C683.987 282.464 683.372 282.347 682.843 282.113C682.314 281.873 681.871 281.548 681.514 281.136C681.164 280.723 680.896 280.242 680.713 279.69C680.534 279.133 680.445 278.538 680.445 277.903V277.652C680.445 277.017 680.534 276.424 680.713 275.873C680.891 275.316 681.158 274.831 681.514 274.419C681.871 274.007 682.311 273.681 682.834 273.442C683.363 273.202 683.976 273.083 684.672 273.083C685.229 273.083 685.744 273.166 686.218 273.333C686.691 273.5 687.098 273.737 687.437 274.043C687.783 274.344 688.05 274.712 688.239 275.146C688.429 275.575 688.518 276.056 688.507 276.591H686.318C686.329 276.368 686.296 276.157 686.218 275.956C686.14 275.756 686.025 275.583 685.875 275.438C685.725 275.293 685.544 275.179 685.332 275.096C685.12 275.007 684.889 274.962 684.639 274.962C684.271 274.962 683.968 275.037 683.728 275.188C683.489 275.338 683.297 275.539 683.152 275.789C683.013 276.04 682.912 276.327 682.851 276.65C682.795 276.973 682.768 277.307 682.768 277.652V277.903C682.768 278.253 682.795 278.593 682.851 278.922C682.907 279.245 683.004 279.532 683.143 279.782C683.288 280.027 683.48 280.225 683.72 280.375C683.965 280.526 684.274 280.601 684.647 280.601Z" fill="#929292"/>
<path d="M695.181 271.036V273.25H698.556V274.962H695.181V278.847C695.181 279.175 695.217 279.451 695.29 279.674C695.368 279.891 695.476 280.066 695.616 280.2C695.755 280.328 695.922 280.42 696.117 280.476C696.317 280.531 696.54 280.559 696.785 280.559C696.963 280.559 697.144 280.551 697.328 280.534C697.517 280.517 697.696 280.498 697.863 280.476C698.035 280.448 698.194 280.42 698.339 280.392C698.489 280.364 698.617 280.336 698.723 280.308L698.949 281.904C698.787 281.999 698.598 282.082 698.381 282.155C698.163 282.221 697.932 282.277 697.687 282.322C697.442 282.366 697.186 282.4 696.919 282.422C696.657 282.45 696.398 282.464 696.142 282.464C695.646 282.464 695.195 282.4 694.789 282.272C694.388 282.138 694.042 281.935 693.753 281.662C693.469 281.383 693.249 281.032 693.093 280.609C692.937 280.18 692.859 279.668 692.859 279.072V274.962H690.795V273.25H692.859V271.036H695.181Z" fill="#929292"/>
<path d="M706.96 281.019C706.654 281.47 706.283 281.823 705.849 282.079C705.42 282.336 704.949 282.464 704.437 282.464C703.969 282.464 703.54 282.391 703.151 282.247C702.761 282.102 702.427 281.873 702.148 281.562C701.87 281.244 701.652 280.843 701.497 280.359C701.346 279.869 701.271 279.281 701.271 278.596V273.25H703.593V278.613C703.593 278.98 703.618 279.289 703.668 279.54C703.724 279.791 703.811 279.994 703.927 280.15C704.044 280.3 704.198 280.409 704.387 280.476C704.576 280.542 704.807 280.576 705.08 280.576C705.543 280.576 705.918 280.489 706.208 280.317C706.498 280.139 706.718 279.896 706.868 279.59V273.25H709.199V282.288H707.094L706.96 281.019Z" fill="#929292"/>
<path d="M717.118 282.288C717.062 282.177 717.015 282.049 716.976 281.904C716.937 281.759 716.904 281.606 716.876 281.445C716.748 281.584 716.6 281.715 716.433 281.837C716.266 281.96 716.079 282.068 715.873 282.163C715.673 282.252 715.45 282.322 715.205 282.372C714.96 282.428 714.695 282.455 714.411 282.455C713.949 282.455 713.523 282.389 713.133 282.255C712.749 282.121 712.418 281.935 712.139 281.695C711.861 281.456 711.644 281.172 711.488 280.843C711.332 280.509 711.254 280.147 711.254 279.757C711.254 278.805 711.607 278.07 712.315 277.552C713.027 277.028 714.088 276.767 715.497 276.767H716.792V276.232C716.792 275.797 716.65 275.455 716.366 275.204C716.082 274.948 715.673 274.82 715.138 274.82C714.665 274.82 714.319 274.923 714.102 275.129C713.885 275.33 713.776 275.6 713.776 275.94H711.454C711.454 275.555 711.538 275.19 711.705 274.845C711.877 274.5 712.125 274.196 712.448 273.935C712.777 273.673 713.175 273.467 713.643 273.316C714.116 273.161 714.656 273.083 715.263 273.083C715.809 273.083 716.316 273.149 716.784 273.283C717.257 273.417 717.667 273.614 718.012 273.876C718.357 274.138 718.627 274.469 718.822 274.87C719.017 275.266 719.114 275.725 719.114 276.249V280.125C719.114 280.609 719.145 281.01 719.206 281.328C719.268 281.645 719.357 281.918 719.474 282.146V282.288H717.118ZM714.904 280.659C715.138 280.659 715.355 280.632 715.556 280.576C715.756 280.52 715.937 280.448 716.099 280.359C716.26 280.27 716.4 280.169 716.516 280.058C716.633 279.941 716.725 279.824 716.792 279.707V278.153H715.606C715.244 278.153 714.935 278.189 714.679 278.262C714.422 278.329 714.214 278.426 714.052 278.554C713.891 278.677 713.771 278.827 713.693 279.005C713.615 279.178 713.576 279.367 713.576 279.573C713.576 279.885 713.685 280.144 713.902 280.35C714.125 280.556 714.459 280.659 714.904 280.659Z" fill="#929292"/>
<path d="M722.23 269.457H727.284V280.4H729.874V282.288H722.23V280.4H724.937V271.353H722.23V269.457Z" fill="#929292"/>
<path d="M764.962 27.079L765.029 28.1733C765.201 27.7835 765.438 27.4772 765.739 27.2544C766.045 27.0261 766.415 26.9119 766.85 26.9119C767.579 26.9119 768.055 27.2321 768.278 27.8726C768.456 27.5718 768.682 27.3379 768.955 27.1709C769.233 26.9982 769.567 26.9119 769.957 26.9119C770.23 26.9119 770.484 26.962 770.717 27.0623C770.957 27.1625 771.163 27.324 771.336 27.5468C771.514 27.764 771.65 28.048 771.745 28.3989C771.845 28.7441 771.895 29.1674 771.895 29.6686V36.1177H769.782V29.6603C769.782 29.4876 769.762 29.3456 769.723 29.2342C769.69 29.1228 769.643 29.0365 769.581 28.9753C769.52 28.9084 769.448 28.8639 769.364 28.8416C769.286 28.8138 769.205 28.7998 769.122 28.7998C768.96 28.7998 768.824 28.8388 768.713 28.9168C768.601 28.9892 768.515 29.0894 768.454 29.2175V36.1177H766.407V29.6519C766.407 29.4793 766.39 29.3372 766.357 29.2259C766.323 29.1145 766.276 29.0282 766.215 28.9669C766.159 28.9056 766.092 28.8639 766.014 28.8416C765.936 28.8138 765.853 28.7998 765.764 28.7998C765.585 28.7998 765.441 28.85 765.329 28.9502C765.223 29.0504 765.14 29.1841 765.079 29.3512V36.1177H762.965V27.079H764.962Z" fill="#929292"/>
<path d="M779.439 36.1177C779.383 36.0063 779.336 35.8782 779.297 35.7334C779.258 35.5886 779.224 35.4355 779.196 35.2739C779.068 35.4132 778.921 35.5441 778.754 35.6666C778.587 35.7891 778.4 35.8977 778.194 35.9924C777.994 36.0815 777.771 36.1511 777.526 36.2012C777.281 36.2569 777.016 36.2847 776.732 36.2847C776.27 36.2847 775.844 36.2179 775.454 36.0843C775.07 35.9506 774.738 35.764 774.46 35.5246C774.181 35.2851 773.964 35.0011 773.808 34.6725C773.652 34.3383 773.574 33.9763 773.574 33.5865C773.574 32.6342 773.928 31.8991 774.635 31.3811C775.348 30.8576 776.409 30.5959 777.818 30.5959H779.113V30.0612C779.113 29.6268 778.971 29.2843 778.687 29.0337C778.403 28.7776 777.994 28.6495 777.459 28.6495C776.986 28.6495 776.64 28.7525 776.423 28.9585C776.206 29.159 776.097 29.4291 776.097 29.7689H773.775C773.775 29.3846 773.858 29.0198 774.026 28.6745C774.198 28.3292 774.446 28.0257 774.769 27.764C775.098 27.5022 775.496 27.2962 775.964 27.1458C776.437 26.9899 776.977 26.9119 777.584 26.9119C778.13 26.9119 778.637 26.9787 779.105 27.1124C779.578 27.246 779.987 27.4437 780.333 27.7055C780.678 27.9672 780.948 28.2986 781.143 28.6996C781.338 29.095 781.435 29.5544 781.435 30.0779V33.9541C781.435 34.4386 781.466 34.8396 781.527 35.157C781.588 35.4744 781.678 35.7473 781.794 35.9757V36.1177H779.439ZM777.225 34.4887C777.459 34.4887 777.676 34.4609 777.877 34.4052C778.077 34.3495 778.258 34.2771 778.42 34.188C778.581 34.0989 778.72 33.9986 778.837 33.8872C778.954 33.7703 779.046 33.6533 779.113 33.5364V31.9826H777.927C777.565 31.9826 777.256 32.0188 776.999 32.0912C776.743 32.158 776.534 32.2555 776.373 32.3836C776.211 32.5061 776.092 32.6565 776.014 32.8347C775.936 33.0073 775.897 33.1967 775.897 33.4027C775.897 33.7146 776.005 33.9736 776.223 34.1796C776.445 34.3857 776.779 34.4887 777.225 34.4887Z" fill="#929292"/>
<path d="M789.898 33.6366C789.898 33.4974 789.864 33.3749 789.797 33.2691C789.736 33.1632 789.622 33.0658 789.455 32.9767C789.293 32.882 789.076 32.7957 788.803 32.7177C788.53 32.6397 788.185 32.5618 787.767 32.4838C787.238 32.378 786.754 32.2471 786.314 32.0912C785.879 31.9297 785.506 31.7375 785.194 31.5148C784.883 31.2864 784.637 31.0247 784.459 30.7295C784.287 30.4344 784.2 30.0947 784.2 29.7104C784.2 29.3373 784.289 28.9808 784.468 28.6411C784.646 28.3014 784.902 28.0034 785.236 27.7473C785.57 27.4911 785.977 27.2878 786.456 27.1374C786.935 26.9871 787.475 26.9119 788.076 26.9119C788.706 26.9119 789.271 26.9871 789.772 27.1374C790.273 27.2822 790.697 27.4855 791.042 27.7473C791.393 28.0034 791.66 28.3097 791.844 28.6662C792.028 29.0226 792.12 29.4096 792.12 29.8273H789.797C789.797 29.4765 789.655 29.1841 789.371 28.9502C789.087 28.7107 788.656 28.591 788.076 28.591C787.536 28.591 787.127 28.6884 786.848 28.8834C786.576 29.0783 786.439 29.3178 786.439 29.6018C786.439 29.7354 786.467 29.8607 786.523 29.9777C786.578 30.0891 786.676 30.1921 786.815 30.2868C786.96 30.3759 787.155 30.4594 787.4 30.5374C787.645 30.6098 787.957 30.6738 788.335 30.7295C788.881 30.8186 789.388 30.9328 789.856 31.072C790.324 31.2113 790.727 31.3923 791.067 31.615C791.407 31.8322 791.671 32.0995 791.861 32.417C792.056 32.7289 792.153 33.102 792.153 33.5364C792.153 33.9374 792.056 34.3077 791.861 34.6474C791.671 34.9816 791.398 35.2712 791.042 35.5162C790.691 35.7612 790.265 35.9534 789.764 36.0926C789.263 36.2263 788.703 36.2931 788.085 36.2931C787.405 36.2931 786.804 36.204 786.28 36.0258C785.762 35.8476 785.328 35.6165 784.977 35.3324C784.626 35.0428 784.359 34.717 784.175 34.355C783.997 33.9875 783.908 33.6199 783.908 33.2524H786.122C786.138 33.4974 786.205 33.709 786.322 33.8872C786.439 34.0599 786.589 34.2019 786.773 34.3133C786.957 34.4191 787.166 34.4971 787.4 34.5472C787.639 34.5973 787.884 34.6224 788.135 34.6224C788.709 34.6224 789.146 34.5305 789.446 34.3467C789.747 34.1629 789.898 33.9262 789.898 33.6366Z" fill="#929292"/>
<path d="M798.602 24.8652V27.079H801.977V28.7915H798.602V32.6759C798.602 33.0045 798.638 33.2802 798.711 33.503C798.789 33.7202 798.897 33.8956 799.036 34.0292C799.176 34.1573 799.343 34.2492 799.538 34.3049C799.738 34.3606 799.961 34.3885 800.206 34.3885C800.384 34.3885 800.565 34.3801 800.749 34.3634C800.938 34.3467 801.117 34.3272 801.284 34.3049C801.456 34.2771 801.615 34.2492 801.76 34.2214C801.91 34.1935 802.038 34.1657 802.144 34.1378L802.37 35.7334C802.208 35.8281 802.019 35.9116 801.802 35.984C801.584 36.0508 801.353 36.1065 801.108 36.1511C800.863 36.1956 800.607 36.2291 800.34 36.2513C800.078 36.2792 799.819 36.2931 799.563 36.2931C799.067 36.2931 798.616 36.2291 798.209 36.101C797.809 35.9673 797.463 35.764 797.174 35.4911C796.89 35.2127 796.67 34.8618 796.514 34.4386C796.358 34.0098 796.28 33.4974 796.28 32.9015V28.7915H794.216V27.079H796.28V24.8652H798.602Z" fill="#929292"/>
<path d="M809.002 36.2847C808.306 36.2847 807.674 36.1706 807.106 35.9422C806.538 35.7139 806.051 35.4048 805.644 35.015C805.238 34.6196 804.923 34.1573 804.7 33.6283C804.483 33.0936 804.375 32.5228 804.375 31.9158V31.5816C804.375 30.891 804.483 30.2617 804.7 29.6937C804.918 29.1201 805.221 28.6272 805.611 28.2151C806.001 27.803 806.463 27.4827 806.998 27.2544C807.532 27.0261 808.114 26.9119 808.743 26.9119C809.395 26.9119 809.974 27.0205 810.481 27.2377C810.993 27.4493 811.425 27.75 811.776 28.1399C812.132 28.5297 812.402 29.0003 812.586 29.5517C812.77 30.0974 812.862 30.7017 812.862 31.3644V32.3502H806.73C806.775 32.6565 806.864 32.9377 806.998 33.1939C807.137 33.4445 807.312 33.6617 807.524 33.8455C807.735 34.0292 807.978 34.1713 808.251 34.2715C808.524 34.3717 808.821 34.4219 809.144 34.4219C809.373 34.4219 809.598 34.3996 809.821 34.355C810.049 34.3105 810.267 34.2464 810.473 34.1629C810.679 34.0738 810.871 33.9652 811.049 33.8371C811.227 33.709 811.383 33.5587 811.517 33.386L812.678 34.6391C812.533 34.8451 812.344 35.0484 812.11 35.2489C811.882 35.4438 811.609 35.6192 811.291 35.7752C810.98 35.9255 810.631 36.0481 810.247 36.1427C809.863 36.2374 809.448 36.2847 809.002 36.2847ZM808.727 28.7915C808.465 28.7915 808.226 28.8388 808.008 28.9335C807.791 29.0226 807.599 29.1535 807.432 29.3261C807.27 29.4988 807.134 29.7048 807.023 29.9443C806.911 30.1838 806.828 30.4511 806.772 30.7462H810.581V30.5625C810.57 30.3174 810.523 30.0863 810.439 29.8691C810.356 29.6519 810.236 29.4653 810.08 29.3094C809.924 29.1479 809.732 29.0226 809.504 28.9335C809.281 28.8388 809.022 28.7915 808.727 28.7915Z" fill="#929292"/>
<path d="M821.383 26.9119C821.734 26.9119 822.057 26.937 822.352 26.9871C822.652 27.0316 822.895 27.0818 823.078 27.1374L822.736 29.4514C822.43 29.379 822.115 29.3261 821.792 29.2927C821.475 29.2537 821.171 29.2342 820.881 29.2342C820.23 29.2342 819.706 29.3595 819.311 29.6101C818.921 29.8607 818.629 30.22 818.434 30.6878V36.1177H816.111V27.079H818.275L818.384 28.5576C818.751 28.0452 819.191 27.6442 819.704 27.3546C820.216 27.0595 820.776 26.9119 821.383 26.9119Z" fill="#929292"/>
<path d="M768.162 147.475V149.689H771.537V151.402H768.162V155.286C768.162 155.615 768.198 155.89 768.27 156.113C768.348 156.33 768.457 156.506 768.596 156.639C768.735 156.767 768.903 156.859 769.097 156.915C769.298 156.971 769.521 156.998 769.766 156.998C769.944 156.998 770.125 156.99 770.309 156.973C770.498 156.957 770.676 156.937 770.843 156.915C771.016 156.887 771.175 156.859 771.32 156.831C771.47 156.804 771.598 156.776 771.704 156.748L771.929 158.343C771.768 158.438 771.578 158.522 771.361 158.594C771.144 158.661 770.913 158.717 770.668 158.761C770.423 158.806 770.167 158.839 769.899 158.861C769.638 158.889 769.379 158.903 769.122 158.903C768.627 158.903 768.176 158.839 767.769 158.711C767.368 158.577 767.023 158.374 766.733 158.101C766.449 157.823 766.229 157.472 766.073 157.049C765.917 156.62 765.839 156.107 765.839 155.512V151.402H763.776V149.689H765.839V147.475H768.162Z" fill="#7D96E9"/>
<path d="M773.859 154.125C773.859 153.468 773.954 152.861 774.143 152.304C774.332 151.741 774.608 151.254 774.97 150.842C775.338 150.43 775.783 150.107 776.307 149.873C776.836 149.639 777.44 149.522 778.119 149.522C778.799 149.522 779.403 149.639 779.932 149.873C780.461 150.107 780.907 150.43 781.269 150.842C781.636 151.254 781.915 151.741 782.104 152.304C782.293 152.861 782.388 153.468 782.388 154.125V154.3C782.388 154.963 782.293 155.576 782.104 156.138C781.915 156.695 781.639 157.179 781.277 157.592C780.915 158.004 780.47 158.327 779.941 158.561C779.411 158.789 778.81 158.903 778.136 158.903C777.457 158.903 776.85 158.789 776.315 158.561C775.786 158.327 775.338 158.004 774.97 157.592C774.608 157.179 774.332 156.695 774.143 156.138C773.954 155.576 773.859 154.963 773.859 154.3V154.125ZM776.181 154.3C776.181 154.679 776.218 155.035 776.29 155.37C776.362 155.698 776.477 155.988 776.632 156.238C776.788 156.483 776.989 156.678 777.234 156.823C777.485 156.968 777.785 157.04 778.136 157.04C778.476 157.04 778.768 156.968 779.013 156.823C779.258 156.678 779.456 156.483 779.606 156.238C779.762 155.988 779.876 155.698 779.949 155.37C780.021 155.035 780.057 154.679 780.057 154.3V154.125C780.057 153.757 780.021 153.409 779.949 153.081C779.876 152.752 779.762 152.462 779.606 152.212C779.456 151.961 779.258 151.763 779.013 151.619C778.768 151.474 778.47 151.402 778.119 151.402C777.774 151.402 777.479 151.474 777.234 151.619C776.989 151.763 776.788 151.961 776.632 152.212C776.477 152.462 776.362 152.752 776.29 153.081C776.218 153.409 776.181 153.757 776.181 154.125V154.3Z" fill="#7D96E9"/>
<path d="M792.571 154.292C792.571 154.949 792.493 155.559 792.337 156.121C792.187 156.684 791.962 157.171 791.661 157.583C791.366 157.99 790.998 158.31 790.558 158.544C790.118 158.778 789.614 158.895 789.046 158.895C788.562 158.895 788.136 158.811 787.768 158.644C787.4 158.477 787.08 158.243 786.807 157.942V162.203H784.485V149.689H786.632L786.715 150.574C786.994 150.24 787.322 149.981 787.701 149.798C788.08 149.614 788.523 149.522 789.029 149.522C789.603 149.522 790.11 149.633 790.55 149.856C790.99 150.073 791.36 150.385 791.661 150.792C791.962 151.193 792.187 151.677 792.337 152.245C792.493 152.808 792.571 153.431 792.571 154.116V154.292ZM790.249 154.116C790.249 153.738 790.213 153.384 790.14 153.056C790.074 152.721 789.965 152.435 789.815 152.195C789.67 151.95 789.48 151.758 789.247 151.619C789.018 151.479 788.74 151.41 788.411 151.41C788.005 151.41 787.67 151.491 787.409 151.652C787.153 151.808 786.952 152.031 786.807 152.32V156.096C786.952 156.38 787.153 156.609 787.409 156.781C787.67 156.948 788.01 157.032 788.428 157.032C788.756 157.032 789.035 156.96 789.263 156.815C789.497 156.67 789.687 156.472 789.831 156.222C789.976 155.971 790.082 155.681 790.149 155.353C790.216 155.019 790.249 154.665 790.249 154.292V154.116Z" fill="#7D96E9"/>
<path d="M795.345 149.689H800.265V156.84H802.713V158.728H795.345V156.84H797.918V151.585H795.345V149.689ZM797.751 147.375C797.751 147.197 797.781 147.033 797.843 146.882C797.909 146.726 798.001 146.595 798.118 146.49C798.235 146.378 798.374 146.292 798.536 146.231C798.703 146.169 798.887 146.139 799.087 146.139C799.499 146.139 799.825 146.256 800.065 146.49C800.31 146.718 800.432 147.013 800.432 147.375C800.432 147.737 800.31 148.035 800.065 148.269C799.825 148.497 799.499 148.611 799.087 148.611C798.887 148.611 798.703 148.581 798.536 148.519C798.374 148.458 798.235 148.375 798.118 148.269C798.001 148.157 797.909 148.027 797.843 147.876C797.781 147.72 797.751 147.553 797.751 147.375Z" fill="#7D96E9"/>
<path d="M809.003 157.04C809.231 157.04 809.449 157.007 809.655 156.94C809.861 156.873 810.042 156.779 810.198 156.656C810.354 156.533 810.473 156.386 810.557 156.213C810.646 156.041 810.685 155.848 810.674 155.637H812.862C812.874 156.105 812.776 156.539 812.57 156.94C812.37 157.341 812.094 157.686 811.743 157.976C811.392 158.265 810.983 158.494 810.515 158.661C810.053 158.822 809.563 158.903 809.045 158.903C808.343 158.903 807.728 158.786 807.199 158.552C806.67 158.313 806.227 157.987 805.87 157.575C805.52 157.163 805.252 156.681 805.068 156.13C804.89 155.573 804.801 154.977 804.801 154.342V154.091C804.801 153.457 804.89 152.863 805.068 152.312C805.247 151.755 805.514 151.271 805.87 150.859C806.227 150.446 806.667 150.121 807.19 149.881C807.719 149.642 808.332 149.522 809.028 149.522C809.585 149.522 810.1 149.605 810.574 149.773C811.047 149.94 811.453 150.176 811.793 150.483C812.138 150.783 812.406 151.151 812.595 151.585C812.785 152.014 812.874 152.496 812.862 153.03H810.674C810.685 152.808 810.652 152.596 810.574 152.396C810.496 152.195 810.381 152.022 810.231 151.878C810.081 151.733 809.9 151.619 809.688 151.535C809.476 151.446 809.245 151.402 808.995 151.402C808.627 151.402 808.324 151.477 808.084 151.627C807.845 151.777 807.653 151.978 807.508 152.229C807.369 152.479 807.268 152.766 807.207 153.089C807.151 153.412 807.123 153.746 807.123 154.091V154.342C807.123 154.693 807.151 155.033 807.207 155.361C807.263 155.684 807.36 155.971 807.499 156.222C807.644 156.467 807.836 156.664 808.076 156.815C808.321 156.965 808.63 157.04 809.003 157.04Z" fill="#7D96E9"/>
<path d="M210.053 76.0374C210.053 74.9876 210.904 74.1365 211.954 74.1365C213.004 74.1365 213.855 74.9876 213.855 76.0374V88.3935C213.855 89.4433 213.004 90.2944 211.954 90.2944C210.904 90.2944 210.053 89.4433 210.053 88.3935V76.0374Z" fill="#88989C"/>
<path d="M210.053 99.7989C210.053 98.749 210.904 97.8979 211.954 97.8979C213.004 97.8979 213.855 98.749 213.855 99.7989V112.155C213.855 113.205 213.004 114.056 211.954 114.056C210.904 114.056 210.053 113.205 210.053 112.155V99.7989Z" fill="#88989C"/>
<path d="M210.053 123.561C210.053 122.511 210.904 121.66 211.954 121.66C213.004 121.66 213.855 122.511 213.855 123.561V135.917C213.855 136.967 213.004 137.818 211.954 137.818C210.904 137.818 210.053 136.967 210.053 135.917V123.561Z" fill="#88989C"/>
<path d="M210.053 147.322C210.053 146.273 210.904 145.422 211.954 145.422C213.004 145.422 213.855 146.273 213.855 147.322V159.678C213.855 160.728 213.004 161.579 211.954 161.579C210.904 161.579 210.053 160.728 210.053 159.678V147.322Z" fill="#88989C"/>
<path d="M210.053 171.084C210.053 170.034 210.904 169.183 211.954 169.183C213.004 169.183 213.855 170.034 213.855 171.084V183.44C213.855 184.49 213.004 185.341 211.954 185.341C210.904 185.341 210.053 184.49 210.053 183.44V171.084Z" fill="#88989C"/>
<path d="M210.053 194.845C210.053 193.796 210.904 192.944 211.954 192.944C213.004 192.944 213.855 193.796 213.855 194.845V207.201C213.855 208.251 213.004 209.102 211.954 209.102C210.904 209.102 210.053 208.251 210.053 207.201V194.845Z" fill="#88989C"/>
<path d="M210.053 218.607C210.053 217.557 210.904 216.706 211.954 216.706C213.004 216.706 213.855 217.557 213.855 218.607V230.963C213.855 232.013 213.004 232.864 211.954 232.864C210.904 232.864 210.053 232.013 210.053 230.963V218.607Z" fill="#88989C"/>
<path d="M210.053 242.369C210.053 241.319 210.904 240.468 211.954 240.468C213.004 240.468 213.855 241.319 213.855 242.369V254.725C213.855 255.775 213.004 256.626 211.954 256.626C210.904 256.626 210.053 255.775 210.053 254.725V242.369Z" fill="#88989C"/>
<path d="M697.643 194.845C697.643 193.795 698.494 192.944 699.544 192.944C700.593 192.944 701.445 193.795 701.445 194.845V207.201C701.445 208.251 700.593 209.102 699.544 209.102C698.494 209.102 697.643 208.251 697.643 207.201V194.845Z" fill="#88989C"/>
<path d="M697.642 218.607C697.642 217.557 698.493 216.706 699.543 216.706C700.592 216.706 701.444 217.557 701.444 218.607V230.963C701.444 232.013 700.592 232.864 699.543 232.864C698.493 232.864 697.642 232.013 697.642 230.963V218.607Z" fill="#88989C"/>
<path d="M697.642 242.369C697.642 241.319 698.493 240.468 699.543 240.468C700.592 240.468 701.444 241.319 701.444 242.369V254.725C701.444 255.775 700.592 256.626 699.543 256.626C698.493 256.626 697.642 255.775 697.642 254.725V242.369Z" fill="#88989C"/>
</svg>
