<svg width="215" height="172" viewBox="0 0 215 172" fill="none" xmlns="http://www.w3.org/2000/svg">
<path d="M155 146.882C161.6 146.882 166.94 141.429 166.94 134.765L167 68.1176C167 61.4529 161.6 56 155 56H59C52.4 56 47 61.4529 47 68.1176V134.765C47 141.429 52.4 146.882 59 146.882H35C35 153.547 40.4 159 47 159H167C173.6 159 179 153.547 179 146.882H155ZM65 68.1176H149C152.3 68.1176 155 70.8441 155 74.1765V128.706C155 132.038 152.3 134.765 149 134.765H65C61.7 134.765 59 132.038 59 128.706V74.1765C59 70.8441 61.7 68.1176 65 68.1176ZM107 152.941C103.7 152.941 101 150.215 101 146.882C101 143.55 103.7 140.824 107 140.824C110.3 140.824 113 143.55 113 146.882C113 150.215 110.3 152.941 107 152.941Z" fill="#7899A1"/>
<rect x="73" y="39.1354" width="11" height="11" transform="rotate(-11.1937 73 39.1354)" fill="#E6EDEF"/>
<rect x="8.77299" y="154.162" width="16" height="16" transform="rotate(-19.6806 8.77299 154.162)" stroke="#E6EDEF" stroke-width="2"/>
<circle cx="185.5" cy="40.5" r="17.5" stroke="#E6EDEF" stroke-width="4"/>
<circle cx="129" cy="34" r="6" stroke="#E6EDEF" stroke-width="2"/>
<circle cx="27" cy="72" r="7" stroke="#E6EDEF" stroke-width="2"/>
<circle cx="39" cy="120" r="4" fill="#E6EDEF"/>
<path d="M42.3562 14.0821L34.2924 47.7715L9.14846 23.9434L42.3562 14.0821Z" fill="#E6EDEF"/>
<path d="M101.931 101.825L101.954 101.785H101.908L101.931 101.825Z" fill="#FF4438"/>
<path d="M89.9824 101.785L95.9683 112.153L96.6317 111.005L91.3073 101.785H89.9824Z" fill="#FF4438"/>
<path d="M97.9567 108.709L93.959 101.785H92.6322L97.2933 109.857L97.9567 108.709Z" fill="#FF4438"/>
<path d="M99.2814 106.415L96.6086 101.785H95.2837L98.618 107.563L99.2814 106.415Z" fill="#FF4438"/>
<path d="M100.606 104.119L99.2583 101.785H97.9335L99.9429 105.267L100.606 104.119Z" fill="#FF4438"/>
<path d="M101.931 101.825L101.908 101.785H100.583L101.268 102.973L101.931 101.825Z" fill="#FF4438"/>
<path d="M112.513 86.0327L97.1163 112.699H109.604L125 86.0327H112.513Z" fill="#FF4438"/>
<path d="M198.178 121.648L214.572 127.712L200.215 139.008L198.178 121.648Z" fill="#E6EDEF"/>
<path fill-rule="evenodd" clip-rule="evenodd" d="M197.206 155.287C197.274 154.739 196.885 154.24 196.337 154.172L195 154.005C194.452 153.937 193.953 154.326 193.885 154.874L193.305 159.533C193.237 160.081 192.738 160.47 192.19 160.402L187.531 159.823C186.983 159.755 186.483 160.144 186.415 160.692L186.249 162.029C186.181 162.577 186.57 163.076 187.118 163.145L191.777 163.724C192.325 163.792 192.714 164.291 192.645 164.84L192.066 169.498C191.998 170.046 192.387 170.546 192.935 170.614L194.272 170.78C194.82 170.848 195.32 170.459 195.388 169.911L195.967 165.253C196.035 164.704 196.535 164.315 197.083 164.384L201.742 164.963C202.29 165.031 202.789 164.642 202.858 164.094L203.024 162.757C203.092 162.209 202.703 161.709 202.155 161.641L197.496 161.062C196.948 160.994 196.559 160.494 196.627 159.946L197.206 155.287Z" fill="#E6EDEF"/>
<path d="M194.604 80.8208C194.604 80.8208 196.674 84.413 194.42 89.5508C192.166 94.6887 188.121 95.5983 188.121 95.5983" stroke="#E6EDEF" stroke-width="4" stroke-linecap="round"/>
</svg>
