<svg width="140" height="29" viewBox="0 0 140 29" fill="none" xmlns="http://www.w3.org/2000/svg">
<path d="M12.8332 16.9616L12.8579 16.9182H12.8084L12.8332 16.9616Z" fill="#FF4438"/>
<path d="M0 16.9182L6.42901 28.0539L7.14151 26.8209L1.42293 16.9182H0Z" fill="#FF4438"/>
<path d="M8.56449 24.3551L4.27091 16.9182H2.84592L7.852 25.588L8.56449 24.3551Z" fill="#FF4438"/>
<path d="M9.98735 21.8913L7.1167 16.9182H5.69377L9.27485 23.1242L9.98735 21.8913Z" fill="#FF4438"/>
<path d="M11.4103 19.4254L9.96261 16.9182H8.53967L10.6978 20.6583L11.4103 19.4254Z" fill="#FF4438"/>
<path d="M12.8333 16.9616L12.8085 16.9182H11.3856L12.1208 18.1945L12.8333 16.9616Z" fill="#FF4438"/>
<path d="M24.1981 0L7.66194 28.6404H21.0734L37.6096 0H24.1981Z" fill="#FF4438"/>
<path d="M52.6911 27.8886L49.4912 21.3484H47.1889V27.8886H43.989V11.4952H50.4121C53.7486 11.4952 55.7309 13.7741 55.7309 16.5135C55.7309 18.8159 54.3261 20.2441 52.7379 20.8177L56.3982 27.8886H52.6911ZM50.2053 14.3517H47.1889V18.6793H50.2053C51.6101 18.6793 52.5311 17.7818 52.5311 16.5135C52.5311 15.2492 51.6101 14.3517 50.2053 14.3517Z" fill="white"/>
<path d="M61.3463 27.8886V11.4952H72.1438V14.3517H64.55V18.1954H71.02V21.0518H64.55V25.036H72.1477V27.8925H61.3463V27.8886Z" fill="white"/>
<path d="M88.147 26.1638C86.8359 27.5218 85.2672 28.0291 83.5189 28.0291C81.7239 28.0291 80.2489 27.3852 79.0977 26.2341C77.4392 24.5756 77.4861 22.5269 77.4861 19.6939C77.4861 16.8608 77.4392 14.8122 79.0977 13.1537C80.2489 12.0025 81.6771 11.3587 83.5189 11.3587C87.3197 11.3587 89.2513 13.8444 89.6884 16.6072H86.4651C86.0983 15.0658 85.154 14.2112 83.5189 14.2112C82.6448 14.2112 81.9307 14.5585 81.4703 15.0853C80.8498 15.776 80.6859 16.537 80.6859 19.69C80.6859 22.843 80.8459 23.6273 81.4703 24.318C81.9307 24.8488 82.6448 25.1687 83.5189 25.1687C84.4867 25.1687 85.2672 24.8253 85.7979 24.2478C86.3286 23.6508 86.5354 22.9132 86.5354 22.0586V21.4382H83.5189V18.769H89.7118V21.165C89.7157 23.5376 89.2982 24.9658 88.147 26.1638Z" fill="white"/>
<path d="M109.789 27.8886H107.393L101.98 11.4952H105.297L108.591 22.1796L111.884 11.4952H115.221L109.789 27.8886Z" fill="white"/>
<path d="M120.426 27.8886V11.4952H123.626V27.8886H120.426Z" fill="white"/>
<path d="M129.222 27.8886V25.3092L136.223 14.3478H129.522V11.4913H140V14.0239L132.976 25.0321H140V27.8886H129.222Z" fill="white"/>
</svg>
