<svg width="255" height="198" viewBox="0 0 255 198" fill="none" xmlns="http://www.w3.org/2000/svg">
<path d="M119 141.333V80.6667C119 75.9 115.15 72 110.444 72H50.5556C45.85 72 42 75.9 42 80.6667V141.333C42 146.1 45.85 150 50.5556 150H110.444C115.15 150 119 146.1 119 141.333ZM67.2389 119.58L76.2222 130.543L89.4833 113.253C90.3389 112.127 92.05 112.127 92.9056 113.297L107.921 133.577C108.99 135.007 107.963 137.043 106.209 137.043H54.9189C53.1222 137.043 52.1383 134.963 53.2506 133.533L63.9022 119.667C64.715 118.54 66.3406 118.497 67.2389 119.58Z" fill="#7899A2"/>
<ellipse cx="102" cy="91.5" rx="6" ry="5.5" fill="#FF4438"/>
<path d="M226 141.333V80.6667C226 75.9 222.15 72 217.444 72H157.556C152.85 72 149 75.9 149 80.6667V141.333C149 146.1 152.85 150 157.556 150H217.444C222.15 150 226 146.1 226 141.333ZM174.239 119.58L183.222 130.543L196.483 113.253C197.339 112.127 199.05 112.127 199.906 113.297L214.921 133.577C215.99 135.007 214.963 137.043 213.209 137.043H161.919C160.122 137.043 159.138 134.963 160.251 133.533L170.902 119.667C171.715 118.54 173.341 118.497 174.239 119.58Z" fill="#7899A1"/>
<ellipse cx="209" cy="91.5" rx="6" ry="5.5" fill="#47FFD3"/>
<rect x="242" y="169.135" width="11" height="11" transform="rotate(-11.1937 242 169.135)" fill="#E6EDEF"/>
<rect x="1.15254" y="155.346" width="14.8271" height="14.8271" transform="rotate(-9.58455 1.15254 155.346)" stroke="#E6EDEF" stroke-width="2"/>
<circle cx="232.5" cy="42.5" r="9.5" stroke="#E6EDEF" stroke-width="4"/>
<circle cx="126.249" cy="182" r="14" stroke="#E6EDEF" stroke-width="4"/>
<circle cx="137.249" cy="146" r="5" stroke="#E6EDEF" stroke-width="2"/>
<circle cx="13.2489" cy="57" r="4" fill="#E6EDEF"/>
<path d="M33.99 24.3168L62.2166 15.9347L55.3624 44.5707L33.99 24.3168Z" stroke="#E6EDEF" stroke-width="3"/>
<path d="M124.427 44.6477L140.82 50.7121L126.464 62.0075L124.427 44.6477Z" fill="#E6EDEF"/>
<path fill-rule="evenodd" clip-rule="evenodd" d="M62.8345 178.12C62.8898 177.571 62.4892 177.081 61.9397 177.025L61.2556 176.956C60.7061 176.901 60.2158 177.302 60.1605 177.851L59.8224 181.209C59.7671 181.759 59.2768 182.159 58.7273 182.104L55.3691 181.766C54.8196 181.711 54.3293 182.111 54.274 182.661L54.2051 183.345C54.1498 183.894 54.5504 184.385 55.0999 184.44L58.458 184.778C59.0075 184.833 59.4082 185.324 59.3528 185.873L59.0148 189.231C58.9594 189.781 59.36 190.271 59.9096 190.326L60.5936 190.395C61.1431 190.451 61.6335 190.05 61.6888 189.501L62.0269 186.143C62.0822 185.593 62.5725 185.192 63.122 185.248L66.4801 185.586C67.0296 185.641 67.5199 185.241 67.5752 184.691L67.6441 184.007C67.6994 183.457 67.2988 182.967 66.7493 182.912L63.3912 182.574C62.8417 182.518 62.4411 182.028 62.4964 181.479L62.8345 178.12Z" fill="#E6EDEF"/>
<path d="M84.0691 46.1129C84.0691 46.1129 84.5485 39.5547 92.0802 34.8155C99.6118 30.0762 105.732 32.4819 105.732 32.4819" stroke="#E6EDEF" stroke-width="4" stroke-linecap="round"/>
</svg>
