<svg width="553" height="325" viewBox="0 0 553 325" fill="none" xmlns="http://www.w3.org/2000/svg">
<g filter="url(#filter0_dd)">
<rect x="60" y="12" width="473" height="285" rx="6" fill="white"/>
</g>
<g filter="url(#filter1_d)">
<path d="M60 18C60 14.6863 62.6863 12 66 12H527C530.314 12 533 14.6863 533 18V44H60V18Z" fill="#F6F8FA"/>
</g>
<path d="M76.952 26.28H78.632V27.344H78.66C78.8467 26.952 79.1127 26.6487 79.458 26.434C79.8033 26.2193 80.2 26.112 80.648 26.112C80.7507 26.112 80.8487 26.1213 80.942 26.14C81.0447 26.1587 81.1473 26.182 81.25 26.21V27.834C81.11 27.7967 80.97 27.7687 80.83 27.75C80.6993 27.722 80.5687 27.708 80.438 27.708C80.046 27.708 79.7287 27.7827 79.486 27.932C79.2527 28.072 79.0707 28.2353 78.94 28.422C78.8187 28.6087 78.7347 28.7953 78.688 28.982C78.6507 29.1687 78.632 29.3087 78.632 29.402V33H76.952V26.28ZM83.4913 30.228C83.5473 30.732 83.7433 31.124 84.0793 31.404C84.4153 31.684 84.8213 31.824 85.2973 31.824C85.7173 31.824 86.0673 31.74 86.3473 31.572C86.6366 31.3947 86.8886 31.1753 87.1033 30.914L88.3073 31.824C87.9153 32.3093 87.4766 32.6547 86.9913 32.86C86.506 33.0653 85.9973 33.168 85.4653 33.168C84.9613 33.168 84.4853 33.084 84.0373 32.916C83.5893 32.748 83.202 32.51 82.8753 32.202C82.5486 31.894 82.2873 31.5253 82.0913 31.096C81.9046 30.6573 81.8113 30.172 81.8113 29.64C81.8113 29.108 81.9046 28.6273 82.0913 28.198C82.2873 27.7593 82.5486 27.386 82.8753 27.078C83.202 26.77 83.5893 26.532 84.0373 26.364C84.4853 26.196 84.9613 26.112 85.4653 26.112C85.932 26.112 86.3566 26.196 86.7393 26.364C87.1313 26.5227 87.4626 26.756 87.7333 27.064C88.0133 27.372 88.228 27.7547 88.3773 28.212C88.536 28.66 88.6153 29.178 88.6153 29.766V30.228H83.4913ZM86.9353 28.968C86.926 28.4733 86.772 28.086 86.4733 27.806C86.1746 27.5167 85.7593 27.372 85.2273 27.372C84.7233 27.372 84.322 27.5167 84.0233 27.806C83.734 28.0953 83.5566 28.4827 83.4913 28.968H86.9353ZM97.1024 26.28V32.398C97.1024 33.0047 97.0277 33.5507 96.8784 34.036C96.729 34.5307 96.4957 34.946 96.1784 35.282C95.8704 35.6273 95.4784 35.8933 95.0024 36.08C94.5264 36.2667 93.9617 36.36 93.3084 36.36C92.683 36.36 92.0904 36.2807 91.5304 36.122C90.9704 35.9633 90.4524 35.674 89.9764 35.254L90.9844 33.882C91.3204 34.19 91.6704 34.428 92.0344 34.596C92.3984 34.764 92.8184 34.848 93.2944 34.848C93.6957 34.848 94.0317 34.792 94.3024 34.68C94.5824 34.568 94.8017 34.414 94.9604 34.218C95.1284 34.022 95.245 33.784 95.3104 33.504C95.385 33.2333 95.4224 32.93 95.4224 32.594V32.104H95.3944C95.1517 32.4307 94.8297 32.678 94.4284 32.846C94.027 33.0047 93.6164 33.084 93.1964 33.084C92.6924 33.084 92.235 32.9953 91.8244 32.818C91.4137 32.6313 91.059 32.384 90.7604 32.076C90.471 31.768 90.247 31.404 90.0884 30.984C89.9297 30.564 89.8504 30.116 89.8504 29.64C89.8504 29.1453 89.925 28.6833 90.0744 28.254C90.2237 27.8247 90.443 27.4513 90.7324 27.134C91.0217 26.8167 91.367 26.5693 91.7684 26.392C92.179 26.2053 92.6457 26.112 93.1684 26.112C93.6444 26.112 94.0877 26.2053 94.4984 26.392C94.909 26.5787 95.2357 26.8773 95.4784 27.288H95.5064V26.28H97.1024ZM93.5184 27.624C93.2197 27.624 92.949 27.6753 92.7064 27.778C92.4637 27.8713 92.2537 28.0067 92.0764 28.184C91.9084 28.352 91.773 28.562 91.6704 28.814C91.577 29.0567 91.5304 29.3273 91.5304 29.626C91.5304 29.8967 91.577 30.1487 91.6704 30.382C91.773 30.6153 91.913 30.8207 92.0904 30.998C92.2677 31.1753 92.4777 31.3153 92.7204 31.418C92.963 31.5207 93.2244 31.572 93.5044 31.572C93.8124 31.572 94.0877 31.5207 94.3304 31.418C94.5824 31.3153 94.7924 31.18 94.9604 31.012C95.1377 30.8347 95.273 30.6247 95.3664 30.382C95.4597 30.1393 95.5064 29.878 95.5064 29.598C95.5064 29.01 95.329 28.534 94.9744 28.17C94.6197 27.806 94.1344 27.624 93.5184 27.624Z" fill="black"/>
<path d="M141.13 29.42C141.017 29.2467 140.857 29.1 140.65 28.98C140.45 28.86 140.22 28.8 139.96 28.8C139.687 28.7933 139.44 28.8367 139.22 28.93C139.007 29.0233 138.823 29.1533 138.67 29.32C138.517 29.4867 138.4 29.6867 138.32 29.92C138.24 30.1467 138.2 30.3933 138.2 30.66C138.2 30.9267 138.24 31.1767 138.32 31.41C138.4 31.6367 138.517 31.8333 138.67 32C138.823 32.1667 139.007 32.2967 139.22 32.39C139.44 32.4833 139.687 32.5267 139.96 32.52C140.22 32.52 140.45 32.46 140.65 32.34C140.857 32.22 141.017 32.0733 141.13 31.9L141.67 32.31C141.437 32.5833 141.173 32.7867 140.88 32.92C140.587 33.0467 140.28 33.1133 139.96 33.12C139.58 33.1267 139.237 33.07 138.93 32.95C138.623 32.8233 138.36 32.65 138.14 32.43C137.927 32.21 137.763 31.95 137.65 31.65C137.537 31.3433 137.48 31.0133 137.48 30.66C137.48 30.3067 137.537 29.98 137.65 29.68C137.763 29.3733 137.927 29.11 138.14 28.89C138.36 28.67 138.623 28.5 138.93 28.38C139.237 28.2533 139.58 28.1933 139.96 28.2C140.28 28.2067 140.587 28.2767 140.88 28.41C141.173 28.5367 141.437 28.7367 141.67 29.01L141.13 29.42ZM146.554 30.66C146.554 30.4 146.511 30.1567 146.424 29.93C146.344 29.7033 146.228 29.5067 146.074 29.34C145.921 29.1733 145.734 29.0433 145.514 28.95C145.301 28.85 145.058 28.8 144.784 28.8C144.511 28.8 144.264 28.85 144.044 28.95C143.831 29.0433 143.648 29.1733 143.494 29.34C143.348 29.5067 143.231 29.7033 143.144 29.93C143.064 30.1567 143.024 30.4 143.024 30.66C143.024 30.92 143.064 31.1633 143.144 31.39C143.231 31.6167 143.348 31.8133 143.494 31.98C143.648 32.1467 143.831 32.28 144.044 32.38C144.264 32.4733 144.511 32.52 144.784 32.52C145.058 32.52 145.301 32.4733 145.514 32.38C145.734 32.28 145.921 32.1467 146.074 31.98C146.228 31.8133 146.344 31.6167 146.424 31.39C146.511 31.1633 146.554 30.92 146.554 30.66ZM147.274 30.66C147.274 31.0133 147.211 31.34 147.084 31.64C146.964 31.94 146.794 32.2 146.574 32.42C146.354 32.64 146.091 32.8133 145.784 32.94C145.484 33.06 145.151 33.12 144.784 33.12C144.424 33.12 144.091 33.06 143.784 32.94C143.484 32.8133 143.224 32.64 143.004 32.42C142.784 32.2 142.611 31.94 142.484 31.64C142.364 31.34 142.304 31.0133 142.304 30.66C142.304 30.3067 142.364 29.98 142.484 29.68C142.611 29.38 142.784 29.12 143.004 28.9C143.224 28.68 143.484 28.51 143.784 28.39C144.091 28.2633 144.424 28.2 144.784 28.2C145.151 28.2 145.484 28.2633 145.784 28.39C146.091 28.51 146.354 28.68 146.574 28.9C146.794 29.12 146.964 29.38 147.084 29.68C147.211 29.98 147.274 30.3067 147.274 30.66ZM148.472 29.36C148.472 29.1867 148.465 29.0133 148.452 28.84C148.445 28.6667 148.435 28.4933 148.422 28.32H149.132V29.03H149.152C149.312 28.7567 149.532 28.55 149.812 28.41C150.099 28.27 150.382 28.2 150.662 28.2C150.789 28.2 150.922 28.2133 151.062 28.24C151.209 28.2667 151.349 28.3167 151.482 28.39C151.615 28.4567 151.739 28.5533 151.852 28.68C151.972 28.8067 152.072 28.97 152.152 29.17C152.285 28.87 152.495 28.6333 152.782 28.46C153.075 28.2867 153.379 28.2 153.692 28.2C154.292 28.2 154.735 28.36 155.022 28.68C155.309 28.9933 155.452 29.4433 155.452 30.03V33H154.792V30.27C154.792 29.7967 154.709 29.4333 154.542 29.18C154.375 28.9267 154.065 28.8 153.612 28.8C153.365 28.8 153.159 28.85 152.992 28.95C152.825 29.0433 152.689 29.17 152.582 29.33C152.482 29.49 152.409 29.6733 152.362 29.88C152.315 30.08 152.292 30.29 152.292 30.51V33H151.632V30.27C151.632 29.7967 151.549 29.4333 151.382 29.18C151.215 28.9267 150.905 28.8 150.452 28.8C150.412 28.8 150.319 28.8133 150.172 28.84C150.032 28.8667 149.885 28.94 149.732 29.06C149.579 29.18 149.439 29.36 149.312 29.6C149.192 29.84 149.132 30.1733 149.132 30.6V33H148.472V29.36ZM156.988 29.36C156.988 29.1867 156.981 29.0133 156.968 28.84C156.961 28.6667 156.951 28.4933 156.938 28.32H157.648V29.03H157.668C157.828 28.7567 158.048 28.55 158.328 28.41C158.614 28.27 158.898 28.2 159.178 28.2C159.304 28.2 159.438 28.2133 159.578 28.24C159.724 28.2667 159.864 28.3167 159.998 28.39C160.131 28.4567 160.254 28.5533 160.368 28.68C160.488 28.8067 160.588 28.97 160.668 29.17C160.801 28.87 161.011 28.6333 161.298 28.46C161.591 28.2867 161.894 28.2 162.208 28.2C162.808 28.2 163.251 28.36 163.538 28.68C163.824 28.9933 163.968 29.4433 163.968 30.03V33H163.308V30.27C163.308 29.7967 163.224 29.4333 163.058 29.18C162.891 28.9267 162.581 28.8 162.128 28.8C161.881 28.8 161.674 28.85 161.508 28.95C161.341 29.0433 161.204 29.17 161.098 29.33C160.998 29.49 160.924 29.6733 160.878 29.88C160.831 30.08 160.808 30.29 160.808 30.51V33H160.148V30.27C160.148 29.7967 160.064 29.4333 159.898 29.18C159.731 28.9267 159.421 28.8 158.968 28.8C158.928 28.8 158.834 28.8133 158.688 28.84C158.548 28.8667 158.401 28.94 158.248 29.06C158.094 29.18 157.954 29.36 157.828 29.6C157.708 29.84 157.648 30.1733 157.648 30.6V33H156.988V29.36ZM169.143 30.3C169.143 29.8533 169.01 29.4933 168.743 29.22C168.477 28.94 168.103 28.8 167.623 28.8C167.41 28.8 167.203 28.8433 167.003 28.93C166.803 29.01 166.627 29.12 166.473 29.26C166.327 29.4 166.207 29.56 166.113 29.74C166.027 29.92 165.983 30.1067 165.983 30.3H169.143ZM165.963 30.84C165.983 31.0733 166.04 31.2933 166.133 31.5C166.227 31.7067 166.35 31.8867 166.503 32.04C166.657 32.1867 166.833 32.3033 167.033 32.39C167.233 32.4767 167.45 32.52 167.683 32.52C168.037 32.52 168.34 32.44 168.593 32.28C168.853 32.1133 169.05 31.9233 169.183 31.71L169.693 32.13C169.413 32.4833 169.103 32.7367 168.763 32.89C168.43 33.0433 168.07 33.12 167.683 33.12C167.337 33.12 167.013 33.06 166.713 32.94C166.42 32.8133 166.167 32.64 165.953 32.42C165.74 32.2 165.57 31.94 165.443 31.64C165.323 31.34 165.263 31.0133 165.263 30.66C165.263 30.3067 165.323 29.98 165.443 29.68C165.563 29.38 165.73 29.12 165.943 28.9C166.157 28.68 166.407 28.51 166.693 28.39C166.98 28.2633 167.29 28.2 167.623 28.2C167.977 28.2 168.293 28.2633 168.573 28.39C168.853 28.5167 169.087 28.6867 169.273 28.9C169.467 29.1067 169.613 29.3533 169.713 29.64C169.813 29.92 169.863 30.22 169.863 30.54V30.84H165.963ZM171.69 28.32C171.703 28.4467 171.71 28.5733 171.71 28.7C171.717 28.82 171.72 28.9433 171.72 29.07H171.74C171.813 28.9433 171.907 28.8267 172.02 28.72C172.133 28.6133 172.26 28.5233 172.4 28.45C172.54 28.37 172.687 28.31 172.84 28.27C173 28.2233 173.157 28.2 173.31 28.2C173.91 28.2 174.353 28.36 174.64 28.68C174.927 28.9933 175.07 29.4433 175.07 30.03V33H174.41V30.41C174.41 29.89 174.32 29.4933 174.14 29.22C173.96 28.94 173.627 28.8 173.14 28.8C173.107 28.8 173.013 28.8133 172.86 28.84C172.707 28.8667 172.543 28.94 172.37 29.06C172.203 29.18 172.053 29.36 171.92 29.6C171.787 29.84 171.72 30.1733 171.72 30.6V33H171.06V29.35C171.06 29.2233 171.053 29.0633 171.04 28.87C171.033 28.6767 171.023 28.4933 171.01 28.32H171.69ZM179.036 28.92H177.686V31.68C177.686 31.8533 177.703 31.9967 177.736 32.11C177.77 32.2167 177.816 32.3 177.876 32.36C177.936 32.42 178.006 32.4633 178.086 32.49C178.173 32.51 178.266 32.52 178.366 32.52C178.48 32.52 178.596 32.5033 178.716 32.47C178.836 32.4367 178.946 32.3933 179.046 32.34L179.076 32.95C178.83 33.0633 178.533 33.12 178.186 33.12C178.06 33.12 177.926 33.1033 177.786 33.07C177.653 33.0367 177.53 32.9733 177.416 32.88C177.303 32.7867 177.21 32.66 177.136 32.5C177.063 32.34 177.026 32.13 177.026 31.87V28.92H176.036V28.32H177.026V27H177.686V28.32H179.036V28.92ZM183.577 30.3C183.577 29.8533 183.443 29.4933 183.177 29.22C182.91 28.94 182.537 28.8 182.057 28.8C181.843 28.8 181.637 28.8433 181.437 28.93C181.237 29.01 181.06 29.12 180.907 29.26C180.76 29.4 180.64 29.56 180.547 29.74C180.46 29.92 180.417 30.1067 180.417 30.3H183.577ZM180.397 30.84C180.417 31.0733 180.473 31.2933 180.567 31.5C180.66 31.7067 180.783 31.8867 180.937 32.04C181.09 32.1867 181.267 32.3033 181.467 32.39C181.667 32.4767 181.883 32.52 182.117 32.52C182.47 32.52 182.773 32.44 183.027 32.28C183.287 32.1133 183.483 31.9233 183.617 31.71L184.127 32.13C183.847 32.4833 183.537 32.7367 183.197 32.89C182.863 33.0433 182.503 33.12 182.117 33.12C181.77 33.12 181.447 33.06 181.147 32.94C180.853 32.8133 180.6 32.64 180.387 32.42C180.173 32.2 180.003 31.94 179.877 31.64C179.757 31.34 179.697 31.0133 179.697 30.66C179.697 30.3067 179.757 29.98 179.877 29.68C179.997 29.38 180.163 29.12 180.377 28.9C180.59 28.68 180.84 28.51 181.127 28.39C181.413 28.2633 181.723 28.2 182.057 28.2C182.41 28.2 182.727 28.2633 183.007 28.39C183.287 28.5167 183.52 28.6867 183.707 28.9C183.9 29.1067 184.047 29.3533 184.147 29.64C184.247 29.92 184.297 30.22 184.297 30.54V30.84H180.397ZM185.893 30.66C185.893 30.92 185.933 31.1633 186.013 31.39C186.1 31.6167 186.22 31.8133 186.373 31.98C186.527 32.1467 186.71 32.28 186.923 32.38C187.143 32.4733 187.39 32.52 187.663 32.52C187.93 32.52 188.177 32.4733 188.403 32.38C188.637 32.28 188.837 32.1467 189.003 31.98C189.17 31.8133 189.3 31.6167 189.393 31.39C189.487 31.1633 189.533 30.92 189.533 30.66C189.533 30.4 189.487 30.1567 189.393 29.93C189.3 29.7033 189.17 29.5067 189.003 29.34C188.837 29.1733 188.637 29.0433 188.403 28.95C188.177 28.85 187.93 28.8 187.663 28.8C187.39 28.8 187.143 28.85 186.923 28.95C186.71 29.0433 186.527 29.1733 186.373 29.34C186.22 29.5067 186.1 29.7033 186.013 29.93C185.933 30.1567 185.893 30.4 185.893 30.66ZM190.163 33H189.503V32.22H189.483C189.377 32.38 189.25 32.5167 189.103 32.63C188.957 32.7433 188.803 32.8367 188.643 32.91C188.483 32.9833 188.317 33.0367 188.143 33.07C187.977 33.1033 187.817 33.12 187.663 33.12C187.297 33.12 186.96 33.06 186.653 32.94C186.353 32.8133 186.093 32.64 185.873 32.42C185.653 32.2 185.48 31.94 185.353 31.64C185.233 31.34 185.173 31.0133 185.173 30.66C185.173 30.3067 185.233 29.98 185.353 29.68C185.48 29.38 185.653 29.12 185.873 28.9C186.093 28.68 186.353 28.51 186.653 28.39C186.96 28.2633 187.297 28.2 187.663 28.2C187.817 28.2 187.977 28.2167 188.143 28.25C188.317 28.2833 188.483 28.3367 188.643 28.41C188.803 28.4833 188.957 28.5767 189.103 28.69C189.25 28.8033 189.377 28.94 189.483 29.1H189.503V25.44H190.163V33ZM198.65 33H194.15V32.17L196.97 29.3C197.077 29.1933 197.183 29.08 197.29 28.96C197.397 28.84 197.493 28.7133 197.58 28.58C197.667 28.4467 197.737 28.3067 197.79 28.16C197.843 28.0133 197.87 27.86 197.87 27.7C197.87 27.5067 197.833 27.3333 197.76 27.18C197.693 27.0267 197.597 26.8967 197.47 26.79C197.343 26.6833 197.197 26.6033 197.03 26.55C196.863 26.49 196.687 26.46 196.5 26.46C196.14 26.46 195.833 26.56 195.58 26.76C195.327 26.96 195.163 27.23 195.09 27.57L194.33 27.49C194.43 26.9633 194.67 26.55 195.05 26.25C195.437 25.95 195.903 25.8 196.45 25.8C196.737 25.8 197.007 25.84 197.26 25.92C197.52 25.9933 197.747 26.1067 197.94 26.26C198.14 26.4133 198.297 26.6067 198.41 26.84C198.53 27.0667 198.59 27.3333 198.59 27.64C198.59 27.9133 198.547 28.1633 198.46 28.39C198.38 28.6167 198.273 28.83 198.14 29.03C198.007 29.23 197.853 29.42 197.68 29.6C197.513 29.78 197.34 29.9567 197.16 30.13L194.93 32.34H198.65V33ZM203.13 30.66C203.13 30.92 203.17 31.1633 203.25 31.39C203.336 31.6167 203.456 31.8133 203.61 31.98C203.763 32.1467 203.946 32.28 204.16 32.38C204.38 32.4733 204.626 32.52 204.9 32.52C205.166 32.52 205.413 32.4733 205.64 32.38C205.873 32.28 206.073 32.1467 206.24 31.98C206.406 31.8133 206.536 31.6167 206.63 31.39C206.723 31.1633 206.77 30.92 206.77 30.66C206.77 30.4 206.723 30.1567 206.63 29.93C206.536 29.7033 206.406 29.5067 206.24 29.34C206.073 29.1733 205.873 29.0433 205.64 28.95C205.413 28.85 205.166 28.8 204.9 28.8C204.626 28.8 204.38 28.85 204.16 28.95C203.946 29.0433 203.763 29.1733 203.61 29.34C203.456 29.5067 203.336 29.7033 203.25 29.93C203.17 30.1567 203.13 30.4 203.13 30.66ZM207.4 33H206.74V32.22H206.72C206.613 32.38 206.486 32.5167 206.34 32.63C206.193 32.7433 206.04 32.8367 205.88 32.91C205.72 32.9833 205.553 33.0367 205.38 33.07C205.213 33.1033 205.053 33.12 204.9 33.12C204.533 33.12 204.196 33.06 203.89 32.94C203.59 32.8133 203.33 32.64 203.11 32.42C202.89 32.2 202.716 31.94 202.59 31.64C202.47 31.34 202.41 31.0133 202.41 30.66C202.41 30.3067 202.47 29.98 202.59 29.68C202.716 29.38 202.89 29.12 203.11 28.9C203.33 28.68 203.59 28.51 203.89 28.39C204.196 28.2633 204.533 28.2 204.9 28.2C205.053 28.2 205.213 28.2167 205.38 28.25C205.553 28.2833 205.72 28.3367 205.88 28.41C206.04 28.4833 206.193 28.5767 206.34 28.69C206.486 28.8033 206.613 28.94 206.72 29.1H206.74V25.44H207.4V33ZM211.503 30.67C211.336 30.67 211.126 30.68 210.873 30.7C210.626 30.7133 210.386 30.7533 210.153 30.82C209.926 30.88 209.73 30.9767 209.563 31.11C209.403 31.2433 209.323 31.4267 209.323 31.66C209.323 31.8133 209.353 31.9467 209.413 32.06C209.48 32.1667 209.566 32.2567 209.673 32.33C209.78 32.3967 209.896 32.4467 210.023 32.48C210.156 32.5067 210.29 32.52 210.423 32.52C210.663 32.52 210.87 32.48 211.043 32.4C211.223 32.32 211.373 32.2133 211.493 32.08C211.613 31.94 211.7 31.78 211.753 31.6C211.813 31.4133 211.843 31.2167 211.843 31.01V30.67H211.503ZM211.843 30.13V30.01C211.843 29.2033 211.443 28.8 210.643 28.8C210.096 28.8 209.62 28.9833 209.213 29.35L208.813 28.88C209.253 28.4267 209.913 28.2 210.793 28.2C211.02 28.2 211.236 28.2333 211.443 28.3C211.656 28.3667 211.84 28.47 211.993 28.61C212.146 28.7433 212.27 28.9133 212.363 29.12C212.456 29.3267 212.503 29.5733 212.503 29.86V31.95C212.503 32.13 212.51 32.32 212.523 32.52C212.543 32.7133 212.563 32.8733 212.583 33H211.943C211.923 32.8867 211.906 32.7633 211.893 32.63C211.886 32.4967 211.883 32.3667 211.883 32.24H211.863C211.67 32.5533 211.44 32.78 211.173 32.92C210.913 33.0533 210.593 33.12 210.213 33.12C210.006 33.12 209.806 33.09 209.613 33.03C209.42 32.9767 209.246 32.8933 209.093 32.78C208.946 32.66 208.826 32.5167 208.733 32.35C208.646 32.1767 208.603 31.9767 208.603 31.75C208.603 31.37 208.7 31.0733 208.893 30.86C209.093 30.64 209.34 30.4767 209.633 30.37C209.933 30.2633 210.25 30.1967 210.583 30.17C210.923 30.1433 211.233 30.13 211.513 30.13H211.843ZM215.769 32.19L217.199 28.32H217.999L215.659 34.22C215.519 34.58 215.339 34.8667 215.119 35.08C214.905 35.2933 214.595 35.4 214.189 35.4C214.089 35.4 213.985 35.3967 213.879 35.39C213.779 35.3833 213.679 35.3633 213.579 35.33L213.649 34.69C213.789 34.7633 213.955 34.8 214.149 34.8C214.382 34.8 214.565 34.7267 214.699 34.58C214.832 34.4333 214.949 34.2267 215.049 33.96L215.389 33.06L213.469 28.32H214.299L215.769 32.19ZM221.333 29.43C221.233 29.2367 221.099 29.0833 220.933 28.97C220.766 28.8567 220.563 28.8 220.323 28.8C220.209 28.8 220.093 28.8133 219.973 28.84C219.859 28.8667 219.756 28.91 219.663 28.97C219.569 29.0233 219.493 29.0933 219.433 29.18C219.379 29.2667 219.353 29.3733 219.353 29.5C219.353 29.72 219.429 29.88 219.583 29.98C219.736 30.08 219.966 30.1667 220.273 30.24L220.943 30.4C221.269 30.4733 221.539 30.6233 221.753 30.85C221.973 31.07 222.083 31.3467 222.083 31.68C222.083 31.9333 222.029 32.1533 221.923 32.34C221.823 32.52 221.686 32.67 221.513 32.79C221.346 32.9033 221.153 32.9867 220.933 33.04C220.713 33.0933 220.489 33.12 220.263 33.12C219.903 33.12 219.566 33.0533 219.253 32.92C218.946 32.78 218.683 32.5433 218.463 32.21L219.033 31.82C219.166 32.0333 219.333 32.2033 219.533 32.33C219.739 32.4567 219.983 32.52 220.263 32.52C220.396 32.52 220.529 32.5067 220.663 32.48C220.796 32.4467 220.913 32.4 221.013 32.34C221.119 32.2733 221.203 32.19 221.263 32.09C221.329 31.99 221.363 31.8733 221.363 31.74C221.363 31.5067 221.276 31.34 221.103 31.24C220.929 31.1333 220.719 31.05 220.473 30.99L219.833 30.84C219.753 30.82 219.643 30.7867 219.503 30.74C219.369 30.6933 219.236 30.6233 219.103 30.53C218.976 30.4367 218.866 30.3167 218.773 30.17C218.679 30.0167 218.633 29.83 218.633 29.61C218.633 29.37 218.679 29.16 218.773 28.98C218.873 28.8 219.003 28.6533 219.163 28.54C219.329 28.4267 219.516 28.3433 219.723 28.29C219.929 28.23 220.143 28.2 220.363 28.2C220.689 28.2 220.993 28.2633 221.273 28.39C221.553 28.5167 221.769 28.7333 221.923 29.04L221.333 29.43ZM228.554 30.67C228.387 30.67 228.177 30.68 227.924 30.7C227.677 30.7133 227.437 30.7533 227.204 30.82C226.977 30.88 226.78 30.9767 226.614 31.11C226.454 31.2433 226.374 31.4267 226.374 31.66C226.374 31.8133 226.404 31.9467 226.464 32.06C226.53 32.1667 226.617 32.2567 226.724 32.33C226.83 32.3967 226.947 32.4467 227.074 32.48C227.207 32.5067 227.34 32.52 227.474 32.52C227.714 32.52 227.92 32.48 228.094 32.4C228.274 32.32 228.424 32.2133 228.544 32.08C228.664 31.94 228.75 31.78 228.804 31.6C228.864 31.4133 228.894 31.2167 228.894 31.01V30.67H228.554ZM228.894 30.13V30.01C228.894 29.2033 228.494 28.8 227.694 28.8C227.147 28.8 226.67 28.9833 226.264 29.35L225.864 28.88C226.304 28.4267 226.964 28.2 227.844 28.2C228.07 28.2 228.287 28.2333 228.494 28.3C228.707 28.3667 228.89 28.47 229.044 28.61C229.197 28.7433 229.32 28.9133 229.414 29.12C229.507 29.3267 229.554 29.5733 229.554 29.86V31.95C229.554 32.13 229.56 32.32 229.574 32.52C229.594 32.7133 229.614 32.8733 229.634 33H228.994C228.974 32.8867 228.957 32.7633 228.944 32.63C228.937 32.4967 228.934 32.3667 228.934 32.24H228.914C228.72 32.5533 228.49 32.78 228.224 32.92C227.964 33.0533 227.644 33.12 227.264 33.12C227.057 33.12 226.857 33.09 226.664 33.03C226.47 32.9767 226.297 32.8933 226.144 32.78C225.997 32.66 225.877 32.5167 225.784 32.35C225.697 32.1767 225.654 31.9767 225.654 31.75C225.654 31.37 225.75 31.0733 225.944 30.86C226.144 30.64 226.39 30.4767 226.684 30.37C226.984 30.2633 227.3 30.1967 227.634 30.17C227.974 30.1433 228.284 30.13 228.564 30.13H228.894ZM231.559 30.6C231.559 30.8467 231.603 31.08 231.689 31.3C231.783 31.5133 231.906 31.7033 232.059 31.87C232.219 32.03 232.403 32.16 232.609 32.26C232.823 32.3533 233.053 32.4 233.299 32.4C233.539 32.4 233.766 32.3567 233.979 32.27C234.199 32.1833 234.393 32.0633 234.559 31.91C234.726 31.75 234.853 31.56 234.939 31.34C235.033 31.12 235.076 30.8733 235.069 30.6C235.069 30.3533 235.029 30.1233 234.949 29.91C234.869 29.69 234.753 29.5 234.599 29.34C234.446 29.1733 234.259 29.0433 234.039 28.95C233.819 28.85 233.573 28.8 233.299 28.8C233.053 28.8 232.823 28.85 232.609 28.95C232.403 29.0433 232.219 29.1733 232.059 29.34C231.906 29.5 231.783 29.69 231.689 29.91C231.603 30.1233 231.559 30.3533 231.559 30.6ZM231.439 33.94C231.633 34.2 231.883 34.4067 232.189 34.56C232.503 34.72 232.849 34.8 233.229 34.8C233.563 34.8 233.846 34.75 234.079 34.65C234.313 34.5567 234.499 34.4267 234.639 34.26C234.786 34.0933 234.889 33.8967 234.949 33.67C235.016 33.45 235.049 33.2133 235.049 32.96V32.12H235.029C234.816 32.44 234.556 32.6667 234.249 32.8C233.943 32.9333 233.619 33 233.279 33C232.939 33 232.619 32.94 232.319 32.82C232.026 32.7 231.769 32.5367 231.549 32.33C231.329 32.1167 231.156 31.8633 231.029 31.57C230.903 31.2767 230.839 30.96 230.839 30.62C230.839 30.28 230.899 29.9633 231.019 29.67C231.139 29.3767 231.303 29.12 231.509 28.9C231.723 28.68 231.973 28.51 232.259 28.39C232.553 28.2633 232.873 28.2 233.219 28.2C233.359 28.2 233.506 28.2133 233.659 28.24C233.819 28.2667 233.976 28.3133 234.129 28.38C234.289 28.4467 234.446 28.54 234.599 28.66C234.753 28.7733 234.896 28.92 235.029 29.1H235.049V28.32H235.709V32.96C235.709 33.2133 235.676 33.4833 235.609 33.77C235.549 34.0567 235.426 34.32 235.239 34.56C235.059 34.8 234.806 35 234.479 35.16C234.153 35.32 233.726 35.4 233.199 35.4C232.733 35.4 232.316 35.3233 231.949 35.17C231.583 35.0167 231.249 34.78 230.949 34.46L231.439 33.94ZM241.203 30.66C241.203 30.4 241.159 30.1567 241.073 29.93C240.993 29.7033 240.876 29.5067 240.723 29.34C240.569 29.1733 240.383 29.0433 240.163 28.95C239.949 28.85 239.706 28.8 239.433 28.8C239.159 28.8 238.913 28.85 238.693 28.95C238.479 29.0433 238.296 29.1733 238.143 29.34C237.996 29.5067 237.879 29.7033 237.793 29.93C237.713 30.1567 237.673 30.4 237.673 30.66C237.673 30.92 237.713 31.1633 237.793 31.39C237.879 31.6167 237.996 31.8133 238.143 31.98C238.296 32.1467 238.479 32.28 238.693 32.38C238.913 32.4733 239.159 32.52 239.433 32.52C239.706 32.52 239.949 32.4733 240.163 32.38C240.383 32.28 240.569 32.1467 240.723 31.98C240.876 31.8133 240.993 31.6167 241.073 31.39C241.159 31.1633 241.203 30.92 241.203 30.66ZM241.923 30.66C241.923 31.0133 241.859 31.34 241.733 31.64C241.613 31.94 241.443 32.2 241.223 32.42C241.003 32.64 240.739 32.8133 240.433 32.94C240.133 33.06 239.799 33.12 239.433 33.12C239.073 33.12 238.739 33.06 238.433 32.94C238.133 32.8133 237.873 32.64 237.653 32.42C237.433 32.2 237.259 31.94 237.133 31.64C237.013 31.34 236.953 31.0133 236.953 30.66C236.953 30.3067 237.013 29.98 237.133 29.68C237.259 29.38 237.433 29.12 237.653 28.9C237.873 28.68 238.133 28.51 238.433 28.39C238.739 28.2633 239.073 28.2 239.433 28.2C239.799 28.2 240.133 28.2633 240.433 28.39C240.739 28.51 241.003 28.68 241.223 28.9C241.443 29.12 241.613 29.38 241.733 29.68C241.859 29.98 241.923 30.3067 241.923 30.66Z" fill="black"/>
<rect x="104.5" y="21.5" width="27" height="17" rx="2.5" stroke="#D3D3D3"/>
<path d="M115.309 30.66C115.309 30.4 115.266 30.1567 115.179 29.93C115.099 29.7033 114.983 29.5067 114.829 29.34C114.676 29.1733 114.489 29.0433 114.269 28.95C114.056 28.85 113.813 28.8 113.539 28.8C113.266 28.8 113.016 28.85 112.789 28.95C112.563 29.0433 112.366 29.1733 112.199 29.34C112.033 29.5067 111.903 29.7033 111.809 29.93C111.716 30.1567 111.669 30.4 111.669 30.66C111.669 30.92 111.716 31.1633 111.809 31.39C111.903 31.6167 112.033 31.8133 112.199 31.98C112.366 32.1467 112.563 32.28 112.789 32.38C113.016 32.4733 113.266 32.52 113.539 32.52C113.813 32.52 114.056 32.4733 114.269 32.38C114.489 32.28 114.676 32.1467 114.829 31.98C114.983 31.8133 115.099 31.6167 115.179 31.39C115.266 31.1633 115.309 30.92 115.309 30.66ZM111.039 25.44H111.699V29.1H111.719C111.826 28.94 111.953 28.8033 112.099 28.69C112.246 28.5767 112.399 28.4833 112.559 28.41C112.719 28.3367 112.883 28.2833 113.049 28.25C113.223 28.2167 113.386 28.2 113.539 28.2C113.906 28.2 114.239 28.2633 114.539 28.39C114.846 28.51 115.109 28.68 115.329 28.9C115.549 29.12 115.719 29.38 115.839 29.68C115.966 29.98 116.029 30.3067 116.029 30.66C116.029 31.0133 115.966 31.34 115.839 31.64C115.719 31.94 115.549 32.2 115.329 32.42C115.109 32.64 114.846 32.8133 114.539 32.94C114.239 33.06 113.906 33.12 113.539 33.12C113.386 33.12 113.223 33.1033 113.049 33.07C112.883 33.0367 112.719 32.9833 112.559 32.91C112.399 32.8367 112.246 32.7433 112.099 32.63C111.953 32.5167 111.826 32.38 111.719 32.22H111.699V33H111.039V25.44ZM121.163 30.66C121.163 30.4 121.119 30.1567 121.033 29.93C120.953 29.7033 120.836 29.5067 120.683 29.34C120.529 29.1733 120.343 29.0433 120.123 28.95C119.909 28.85 119.666 28.8 119.393 28.8C119.119 28.8 118.873 28.85 118.653 28.95C118.439 29.0433 118.256 29.1733 118.103 29.34C117.956 29.5067 117.839 29.7033 117.753 29.93C117.673 30.1567 117.633 30.4 117.633 30.66C117.633 30.92 117.673 31.1633 117.753 31.39C117.839 31.6167 117.956 31.8133 118.103 31.98C118.256 32.1467 118.439 32.28 118.653 32.38C118.873 32.4733 119.119 32.52 119.393 32.52C119.666 32.52 119.909 32.4733 120.123 32.38C120.343 32.28 120.529 32.1467 120.683 31.98C120.836 31.8133 120.953 31.6167 121.033 31.39C121.119 31.1633 121.163 30.92 121.163 30.66ZM121.883 30.66C121.883 31.0133 121.819 31.34 121.693 31.64C121.573 31.94 121.403 32.2 121.183 32.42C120.963 32.64 120.699 32.8133 120.393 32.94C120.093 33.06 119.759 33.12 119.393 33.12C119.033 33.12 118.699 33.06 118.393 32.94C118.093 32.8133 117.833 32.64 117.613 32.42C117.393 32.2 117.219 31.94 117.093 31.64C116.973 31.34 116.913 31.0133 116.913 30.66C116.913 30.3067 116.973 29.98 117.093 29.68C117.219 29.38 117.393 29.12 117.613 28.9C117.833 28.68 118.093 28.51 118.393 28.39C118.699 28.2633 119.033 28.2 119.393 28.2C119.759 28.2 120.093 28.2633 120.393 28.39C120.699 28.51 120.963 28.68 121.183 28.9C121.403 29.12 121.573 29.38 121.693 29.68C121.819 29.98 121.883 30.3067 121.883 30.66ZM125.5 28.92H124.15V31.68C124.15 31.8533 124.167 31.9967 124.2 32.11C124.234 32.2167 124.28 32.3 124.34 32.36C124.4 32.42 124.47 32.4633 124.55 32.49C124.637 32.51 124.73 32.52 124.83 32.52C124.944 32.52 125.06 32.5033 125.18 32.47C125.3 32.4367 125.41 32.3933 125.51 32.34L125.54 32.95C125.294 33.0633 124.997 33.12 124.65 33.12C124.524 33.12 124.39 33.1033 124.25 33.07C124.117 33.0367 123.994 32.9733 123.88 32.88C123.767 32.7867 123.674 32.66 123.6 32.5C123.527 32.34 123.49 32.13 123.49 31.87V28.92H122.5V28.32H123.49V27H124.15V28.32H125.5V28.92Z" fill="black"/>
<rect x="75" y="64" width="255" height="8" fill="#E8E8E8"/>
<rect x="75" y="230" width="109" height="8" fill="#E8E8E8"/>
<rect x="75" y="251" width="324" height="8" fill="#E8E8E8"/>
<rect x="75" y="272" width="213" height="8" fill="#E8E8E8"/>
<rect x="75" y="85" width="132" height="8" fill="#E8E8E8"/>
<circle cx="86.5" cy="129.5" r="9.5" fill="#F53E72"/>
<circle cx="86.5" cy="161.5" r="9.5" fill="#49A5FA"/>
<circle cx="86.5" cy="193.5" r="9.5" fill="#00303C"/>
<circle cx="109.5" cy="161.5" r="9.5" fill="#49A5FA"/>
<circle cx="132.5" cy="161.5" r="9.5" fill="#49A5FA"/>
<circle cx="155.5" cy="161.5" r="9.5" fill="#49A5FA"/>
<circle cx="178.5" cy="161.5" r="9.5" fill="#49A5FA"/>
<circle cx="201.5" cy="161.5" r="9.5" fill="#49A5FA"/>
<circle cx="224.5" cy="161.5" r="9.5" fill="#49A5FA"/>
<circle cx="247.5" cy="161.5" r="9.5" fill="#49A5FA"/>
<circle cx="270.5" cy="161.5" r="9.5" fill="#49A5FA"/>
<circle cx="293.5" cy="161.5" r="9.5" fill="#49A5FA"/>
<circle cx="316.5" cy="161.5" r="9.5" fill="#49A5FA"/>
<circle cx="339.5" cy="161.5" r="9.5" fill="#49A5FA"/>
<circle cx="362.5" cy="161.5" r="9.5" fill="#49A5FA"/>
<circle cx="109.5" cy="129.5" r="9.5" fill="#F53E72"/>
<circle cx="132.5" cy="129.5" r="9.5" fill="#F53E72"/>
<circle cx="155.5" cy="129.5" r="9.5" fill="#F53E72"/>
<rect y="12" width="50" height="50" rx="6" fill="white"/>
<path d="M18.9666 40.1378L18.9916 40.094H18.9415L18.9666 40.1378Z" fill="#FF4438"/>
<path d="M6 40.094L12.4958 51.3452L13.2157 50.0995L7.43771 40.094H6Z" fill="#FF4438"/>
<path d="M14.6535 47.608L10.3154 40.094H8.87558L13.9336 48.8538L14.6535 47.608Z" fill="#FF4438"/>
<path d="M16.0911 45.1187L13.1907 40.094H11.753L15.3713 46.3644L16.0911 45.1187Z" fill="#FF4438"/>
<path d="M17.529 42.6272L16.0663 40.094H14.6286L16.8091 43.8729L17.529 42.6272Z" fill="#FF4438"/>
<path d="M18.9664 40.1378L18.9414 40.094H17.5036L18.2465 41.3835L18.9664 40.1378Z" fill="#FF4438"/>
<path d="M30.4494 23L13.7416 51.9377H27.2923L44.0002 23H30.4494Z" fill="#FF4438"/>
<circle cx="516" cy="29" r="6" fill="#CFD3D7"/>
<circle cx="498" cy="29" r="6" fill="#CFD3D7"/>
<circle cx="480" cy="29" r="6" fill="#CFD3D7"/>
<defs>
<filter id="filter0_dd" x="40" y="0" width="513" height="325" filterUnits="userSpaceOnUse" color-interpolation-filters="sRGB">
<feFlood flood-opacity="0" result="BackgroundImageFix"/>
<feColorMatrix in="SourceAlpha" type="matrix" values="0 0 0 0 0 0 0 0 0 0 0 0 0 0 0 0 0 0 127 0"/>
<feOffset dy="8"/>
<feGaussianBlur stdDeviation="10"/>
<feColorMatrix type="matrix" values="0 0 0 0 0 0 0 0 0 0 0 0 0 0 0 0 0 0 0.12 0"/>
<feBlend mode="normal" in2="BackgroundImageFix" result="effect1_dropShadow"/>
<feColorMatrix in="SourceAlpha" type="matrix" values="0 0 0 0 0 0 0 0 0 0 0 0 0 0 0 0 0 0 127 0"/>
<feOffset dy="2"/>
<feGaussianBlur stdDeviation="3"/>
<feColorMatrix type="matrix" values="0 0 0 0 0 0 0 0 0 0 0 0 0 0 0 0 0 0 0.06 0"/>
<feBlend mode="normal" in2="effect1_dropShadow" result="effect2_dropShadow"/>
<feBlend mode="normal" in="SourceGraphic" in2="effect2_dropShadow" result="shape"/>
</filter>
<filter id="filter1_d" x="60" y="12" width="473" height="33" filterUnits="userSpaceOnUse" color-interpolation-filters="sRGB">
<feFlood flood-opacity="0" result="BackgroundImageFix"/>
<feColorMatrix in="SourceAlpha" type="matrix" values="0 0 0 0 0 0 0 0 0 0 0 0 0 0 0 0 0 0 127 0"/>
<feOffset dy="1"/>
<feColorMatrix type="matrix" values="0 0 0 0 0.833333 0 0 0 0 0.833333 0 0 0 0 0.833333 0 0 0 1 0"/>
<feBlend mode="normal" in2="BackgroundImageFix" result="effect1_dropShadow"/>
<feBlend mode="normal" in="SourceGraphic" in2="effect1_dropShadow" result="shape"/>
</filter>
</defs>
</svg>
