<svg width="198" height="176" viewBox="0 0 198 176" fill="none" xmlns="http://www.w3.org/2000/svg">
<path d="M134.137 81.445C130.794 64.6262 115.897 52 98 52C83.7908 52 71.45 59.995 65.3042 71.695C50.505 73.255 39 85.6862 39 100.75C39 116.886 52.2258 130 68.5 130H132.417C145.987 130 157 119.08 157 105.625C157 92.755 146.921 82.3225 134.137 81.445ZM91.6575 111.914C89.74 113.815 86.6425 113.815 84.725 111.914L74.4 101.725C72.4825 99.8237 72.4825 96.7525 74.4 94.8512C76.3175 92.95 79.415 92.95 81.3325 94.8512L88.1667 101.628L110.193 79.7875C112.111 77.8862 115.208 77.8862 117.126 79.7875C119.043 81.6887 119.043 84.76 117.126 86.6612L91.6575 111.914Z" fill="#7899A1"/>
<rect x="144.755" y="5.66309" width="29" height="29" transform="rotate(-9.74338 144.755 5.66309)" fill="#E6EDEF"/>
<rect x="8.12526" y="123.405" width="25" height="25" transform="rotate(13.2281 8.12526 123.405)" stroke="#E6EDEF" stroke-width="4"/>
<circle cx="29.5" cy="29.5" r="17.5" stroke="#E6EDEF" stroke-width="4"/>
<circle cx="153" cy="72" r="7" stroke="#E6EDEF" stroke-width="2"/>
<circle cx="68" cy="31" r="5" stroke="#E6EDEF" stroke-width="2"/>
<circle cx="179.5" cy="148.5" r="8.5" fill="#E6EDEF"/>
<circle cx="194" cy="87" r="4" fill="#E6EDEF"/>
<path d="M50.3839 168.163L57.0383 152L67.8062 166.757L50.3839 168.163Z" fill="#E6EDEF"/>
<path fill-rule="evenodd" clip-rule="evenodd" d="M38.3079 63.9162C38.5107 63.4025 38.2586 62.8216 37.7449 62.6188L36.2567 62.0314C35.743 61.8286 35.1621 62.0807 34.9594 62.5944L33.0501 67.4312C32.8473 67.9449 32.2665 68.197 31.7528 67.9942L26.916 66.0849C26.4023 65.8821 25.8214 66.1342 25.6186 66.6479L25.0312 68.1362C24.8284 68.6499 25.0805 69.2307 25.5942 69.4335L30.431 71.3427C30.9447 71.5455 31.1967 72.1263 30.994 72.6401L29.0847 77.4769C28.8819 77.9906 29.134 78.5714 29.6477 78.7742L31.1359 79.3617C31.6497 79.5644 32.2305 79.3124 32.4333 78.7987L34.3425 73.9619C34.5453 73.4481 35.1261 73.1961 35.6398 73.3989L40.4767 75.3081C40.9904 75.5109 41.5712 75.2588 41.774 74.7451L42.3614 73.2569C42.5642 72.7432 42.3122 72.1623 41.7985 71.9596L36.9616 70.0503C36.4479 69.8475 36.1959 69.2667 36.3987 68.753L38.3079 63.9162Z" fill="#E6EDEF"/>
<path fill-rule="evenodd" clip-rule="evenodd" d="M157.79 125.435C157.647 124.901 157.099 124.585 156.565 124.728L156.204 124.824C155.671 124.967 155.354 125.516 155.497 126.049L156.208 128.703C156.351 129.236 156.035 129.785 155.501 129.928L152.848 130.639C152.314 130.782 151.998 131.33 152.141 131.863L152.237 132.224C152.38 132.758 152.929 133.074 153.462 132.931L156.116 132.22C156.649 132.077 157.197 132.394 157.34 132.927L158.051 135.581C158.194 136.115 158.743 136.431 159.276 136.288L159.637 136.192C160.171 136.049 160.487 135.5 160.344 134.967L159.633 132.313C159.49 131.78 159.807 131.231 160.34 131.088L162.994 130.377C163.527 130.234 163.844 129.686 163.701 129.153L163.604 128.792C163.461 128.258 162.913 127.942 162.38 128.085L159.726 128.796C159.192 128.939 158.644 128.622 158.501 128.089L157.79 125.435Z" fill="#E6EDEF"/>
<path d="M143.077 149C143.077 149 141.206 155.304 132.835 158.322C124.463 161.34 119 157.681 119 157.681" stroke="#E6EDEF" stroke-width="4" stroke-linecap="round"/>
</svg>
